<?xml version="1.0" encoding="UTF-8"?>
<svg id="_Слой_1" data-name="Слой 1" xmlns="http://www.w3.org/2000/svg" viewBox="0 0 3000 2000">
  <defs>
    <style>
      .cls-1 {
        fill: #2e3552;
      }

      .cls-1, .cls-2, .cls-3, .cls-4, .cls-5, .cls-6, .cls-7, .cls-8, .cls-9, .cls-10, .cls-11, .cls-12, .cls-13, .cls-14, .cls-15, .cls-16, .cls-17, .cls-18, .cls-19, .cls-20 {
        stroke-width: 0px;
      }

      .cls-2 {
        fill: #82b378;
      }

      .cls-3 {
        fill: #7c1b40;
      }

      .cls-4 {
        fill: #2c3a64;
      }

      .cls-5 {
        fill: #ed985f;
      }

      .cls-6 {
        fill: #8c013c;
      }

      .cls-7 {
        fill: #c7dcfb;
      }

      .cls-8 {
        fill: #e6e7e8;
      }

      .cls-9 {
        fill: #afcdfb;
      }

      .cls-10 {
        fill: #dfebfd;
      }

      .cls-11 {
        fill: #fff;
      }

      .cls-12 {
        fill: #a8d29f;
      }

      .cls-13 {
        fill: #ebf3fa;
      }

      .cls-14 {
        fill: #233862;
      }

      .cls-15 {
        fill: #ffb27d;
      }

      .cls-16 {
        fill: #78acea;
      }

      .cls-17 {
        fill: #c65447;
      }

      .cls-18 {
        fill: #699dee;
      }

      .cls-19 {
        fill: #d7e9ff;
      }

      .cls-20 {
        fill: #5288d8;
      }
    </style>
  </defs>
  <path class="cls-13" d="m383.45,1712.94s-309.76-332.59-52.39-692.66c228.36-319.48,494.61-297.64,689.95-167.99,83.2,55.22,323.07,6.81,527.23-318.28,278.42-443.33,1243.52-174.45,1067.55,507.62-85.16,330.07,259.16,342.07,83.72,672.01l-2316.07-.7Z"/>
  <path class="cls-12" d="m978.32,1069.97s-153.24-218.13-213.13-189.85c-59.89,28.28,213.13,189.85,213.13,189.85Z"/>
  <path class="cls-12" d="m968.58,1011.36s-23.41-164.01-60.31-157.58c-36.9,6.44,60.31,157.58,60.31,157.58Z"/>
  <g>
    <path class="cls-2" d="m839.02,1522.56s14.73-72.98-42.47-82.15c0,0-38.8-1.35-61.64,13.28,0,0,64.88,37.46,57.16,49.1-7.72,11.64-69.28-46.95-69.28-46.95,0,0-69.55,30.46-85.07,52.52,0,0,82.19,14.64,71.84,24.03-10.34,9.38-96.57-1.88-96.57-1.88,0,0-55.57,44.76-31.37,80.39,24.2,35.63,51.82,35.38,60.56,29.18,8.74-6.19,51.54-57.35,56.98-50.39,5.44,6.96-13.39,50.15-35.67,64.13,0,0,69.97,23.56,91.04-6.3,21.07-29.85,11.33-53.07,24.69-71.28,13.36-18.21,28.68-26.75,25.94-14.25-2.74,12.49-30.66,38.75-30.78,62.62-.12,23.87-2.49,41.25,24.78,20.14,27.27-21.11,63.48-69.92,51.67-96.05l-11.81-26.13Z"/>
    <g>
      <path class="cls-2" d="m612.35,1595.04s163.19-99.6,226.67-72.48c0,0,21.78,19.84,59.25,28.06l9.86,8.46s-45.92-14.33-57.3-10.39c0,0-16.84-68.13-238.48,46.36Z"/>
      <path class="cls-2" d="m898.27,1550.61s50.59,6.47,79.5,52.39l-6.17,4.21s-38.76-42.52-70.11-50.11c-31.35-7.58-3.22-6.49-3.22-6.49Z"/>
    </g>
  </g>
  <g>
    <path class="cls-12" d="m888.97,1309.61s118.5-66.36,63.2-156.42c0,0-44.24-55.3-91.64-69.52,0,0,25.28,134.3,0,137.46-25.28,3.16-17.38-151.68-17.38-151.68,0,0-124.82-60.04-173.8-55.3,0,0,77.42,131.14,52.14,127.98-25.28-3.16-112.18-135.88-112.18-135.88,0,0-127.98-23.7-148.52,52.14-20.54,75.84,12.64,113.76,31.6,118.5,18.96,4.74,140.62,3.16,137.46,18.96-3.16,15.8-85.32,41.08-131.14,26.86,0,0,50.56,124.82,116.92,118.5,66.36-6.32,86.9-47.4,127.98-50.56,41.08-3.16,71.1,7.9,50.56,18.96-20.54,11.06-90.06,3.62-123.24,31.83-33.18,28.21-60.04,45.59,1.58,58.23,61.62,12.64,172.22,4.74,194.34-42.66l22.12-47.4Z"/>
    <g>
      <path class="cls-2" d="m519.25,1082.09s331.8,107.44,369.72,227.52c0,0-1.58,53.72,31.6,115.34v23.7s-34.76-80.58-53.72-91.64c0,0,74.26-104.28-347.6-274.92Z"/>
      <path class="cls-2" d="m920.57,1424.95s51.17,77.7,22,172.29l-13.16-3.54s12.78-104.18-13.99-156.58c-26.77-52.4,5.16-12.18,5.16-12.18Z"/>
    </g>
  </g>
  <path class="cls-3" d="m1009.41,754.4l-177.3,916.62c-3.61,18.64,10.68,35.95,29.67,35.95h93.51l54.13-952.57Z"/>
  <g>
    <path class="cls-7" d="m2187.96,1016.79s-79.75-50.87-37.7-111.29c0,0,32.97-36.69,66.5-44.68,0,0-22.94,92.38-5.49,95.58,17.45,3.21,18.14-104.78,18.14-104.78,0,0,89.19-36.77,123.06-31.52,0,0-59.07,88.1-41.37,86.91,17.71-1.19,83.43-90.01,83.43-90.01,0,0,89.94-11.37,101.2,42.19,11.25,53.56-13.33,78.6-26.7,81.14-13.37,2.54-97.91-3.42-96.34,7.7,1.57,11.11,57.69,31.97,90.12,23.91,0,0-40.14,84.78-86.03,77.73-45.89-7.04-58.54-36.43-86.97-40.27-28.44-3.84-49.76,2.66-35.91,11.17,13.84,8.51,62.48,6.12,84.43,27.05,21.95,20.94,39.93,34.1-3.42,40.43-43.35,6.33-119.95-3.58-133.43-37.42l-13.49-33.84Z"/>
    <g>
      <path class="cls-7" d="m2454.14,873.33s-235.01,61.47-266.17,143.45c0,0-1.04,37.42-26.58,78.94l-.95,16.48s27.39-54.65,41.01-61.58c0,0-47.48-75.48,252.68-177.29Z"/>
      <path class="cls-7" d="m2161.39,1095.73s-38.68,51.99-22.17,118.93l9.29-1.93s-4.73-72.95,15.98-108.32c20.71-35.37-3.1-8.67-3.1-8.67Z"/>
    </g>
  </g>
  <g>
    <path class="cls-10" d="m1973.24,795.96s-122.53-26.91-97.78-121.34c0,0,24.29-60.74,62.38-86.01,0,0,13.64,125.49,36.83,121.51,23.19-3.98-25.28-138.74-25.28-138.74,0,0,94.25-86.52,138.82-95.46,0,0-33.3,136.67-11.8,127.1s62.75-150.18,62.75-150.18c0,0,106.78-55.24,145.26,6.29,38.48,61.54,19.31,103.95,3.82,113.22-15.49,9.27-123.46,40.47-116.43,53.59,7.03,13.12,86.43,13.45,123.12-11.4,0,0-11.25,123.89-71.6,136.08-60.35,12.2-89.52-18.61-126.68-10.4-37.16,8.21-60.73,26.04-39.61,30.31,21.12,4.27,80.58-20.93,117.47-4.88,36.89,16.04,65.29,24.21,14.21,51.9-51.08,27.69-150.97,50.34-183.22,14.37l-32.26-35.97Z"/>
    <g>
      <path class="cls-10" d="m2239.1,495.77s-264.52,183.89-265.86,300.2c0,0,15.79,47.06,2.97,110.43l6.35,20.95s9.13-80.55,22.93-95.4c0,0-93.59-72.28,233.6-336.17Z"/>
      <path class="cls-10" d="m1976.21,906.39s-24.41,82.4,26.72,158.19l10.69-6.65s-39.21-88.67-29.59-142.16c9.62-53.49-7.82-9.38-7.82-9.38Z"/>
    </g>
  </g>
  <path class="cls-16" d="m1011.54,750.69l-117.52,899.97c-3.9,29.84,19.34,56.3,49.43,56.3h172.4l-97.2-959.53-7.11,3.25Z"/>
  <path class="cls-18" d="m1011.54,750.69l-52.61,894.24c-1.98,33.66,24.78,62.04,58.5,62.04h257.12l-263.01-956.28Z"/>
  <path class="cls-20" d="m1009.56,757.99l25.58,886.94c-1.98,33.66,24.78,62.04,58.5,62.04h257.12l-341.2-948.98Z"/>
  <path class="cls-19" d="m2240.59,1706.97h-1013.8c-25.31,0-47.01-18.09-51.56-42.99l-154.26-843.62c-7-38.3,22.41-73.59,61.35-73.59h1001.86c25.31,0,47.01,18.09,51.56,42.99l156.41,855.36c5.89,32.19-18.84,61.85-51.56,61.85Z"/>
  <path class="cls-6" d="m1041.04,929.92h1121.04l-28.74-159.28c-2.49-13.82-14.52-23.87-28.56-23.87H1018.91c-5.93,0-10.42,5.38-9.35,11.21l31.47,171.93Z"/>
  <g>
    <g>
      <path class="cls-16" d="m1067.25,698.84c-26.8,0-48.6,21.79-48.6,48.59h9.34c0-21.65,17.61-39.27,39.27-39.27s39.28,17.61,39.28,39.27c0,4.35-.71,8.53-2.02,12.43-3.86,11.54-12.93,20.71-24.42,24.68-3.36,1.16-6.91,1.9-10.6,2.1v9.34c4.31-.19,8.47-.95,12.42-2.2,15.76-4.99,28.08-17.83,32.34-33.91,1.05-3.97,1.61-8.14,1.61-12.43,0-26.8-21.8-48.59-48.6-48.59Z"/>
      <path class="cls-16" d="m1082.28,790.97c0,.97-.14,1.92-.38,2.81-1.23,4.45-5.31,7.72-10.15,7.72-5.81,0-10.52-4.71-10.52-10.52s4.71-10.52,10.52-10.52c3.39,0,6.4,1.61,8.33,4.1,1.38,1.78,2.19,4.01,2.19,6.43Z"/>
    </g>
    <g>
      <path class="cls-16" d="m1241.5,698.84c-26.8,0-48.6,21.79-48.6,48.59h9.33c0-21.65,17.62-39.27,39.28-39.27s39.27,17.61,39.27,39.27c0,4.35-.71,8.53-2.02,12.43-3.86,11.54-12.93,20.71-24.4,24.68-3.36,1.16-6.92,1.9-10.62,2.1v9.34c4.31-.19,8.47-.95,12.42-2.2,15.77-4.99,28.09-17.83,32.35-33.91,1.05-3.97,1.61-8.14,1.61-12.43,0-26.8-21.8-48.59-48.6-48.59Z"/>
      <path class="cls-16" d="m1256.52,790.97c0,.97-.14,1.92-.38,2.81-1.23,4.45-5.3,7.72-10.15,7.72-5.81,0-10.52-4.71-10.52-10.52s4.71-10.52,10.52-10.52c3.4,0,6.41,1.61,8.34,4.1,1.37,1.78,2.18,4.01,2.18,6.43Z"/>
    </g>
    <g>
      <path class="cls-16" d="m1415.76,698.84c-26.8,0-48.6,21.79-48.6,48.59h9.33c0-21.65,17.61-39.27,39.28-39.27s39.27,17.61,39.27,39.27c0,4.35-.71,8.53-2.02,12.43-3.86,11.54-12.93,20.71-24.4,24.68-3.36,1.16-6.92,1.9-10.62,2.1v9.34c4.3-.19,8.47-.95,12.42-2.2,15.78-5,28.08-17.83,32.34-33.91,1.05-3.97,1.61-8.14,1.61-12.43,0-26.8-21.8-48.59-48.59-48.59Z"/>
      <path class="cls-16" d="m1430.78,790.97c0,.97-.14,1.92-.38,2.81-1.23,4.45-5.31,7.72-10.15,7.72-5.81,0-10.52-4.71-10.52-10.52s4.71-10.52,10.52-10.52c3.39,0,6.4,1.61,8.34,4.1,1.37,1.78,2.18,4.01,2.18,6.43Z"/>
    </g>
    <g>
      <path class="cls-16" d="m1590,698.84c-26.8,0-48.59,21.79-48.59,48.59h9.33c0-21.65,17.61-39.27,39.27-39.27s39.28,17.61,39.28,39.27c0,4.35-.71,8.53-2.02,12.43-3.86,11.54-12.93,20.71-24.42,24.68-3.36,1.16-6.91,1.9-10.6,2.1v9.34c4.3-.19,8.47-.95,12.42-2.2,15.78-5,28.08-17.83,32.34-33.91,1.05-3.97,1.61-8.14,1.61-12.43,0-26.8-21.8-48.59-48.6-48.59Z"/>
      <path class="cls-16" d="m1605.04,790.97c0,.97-.14,1.92-.38,2.81-1.23,4.45-5.31,7.72-10.15,7.72-5.81,0-10.52-4.71-10.52-10.52s4.71-10.52,10.52-10.52c3.39,0,6.4,1.61,8.33,4.1,1.38,1.78,2.19,4.01,2.19,6.43Z"/>
    </g>
    <g>
      <path class="cls-16" d="m1764.26,698.84c-26.8,0-48.6,21.79-48.6,48.59h9.33c0-21.65,17.62-39.27,39.28-39.27s39.27,17.61,39.27,39.27c0,4.35-.71,8.53-2.02,12.43-3.86,11.54-12.93,20.71-24.42,24.68-3.34,1.16-6.91,1.9-10.6,2.1v9.34c4.32-.19,8.47-.95,12.42-2.2,15.78-4.99,28.09-17.83,32.35-33.91,1.05-3.97,1.61-8.14,1.61-12.43,0-26.8-21.8-48.59-48.6-48.59Z"/>
      <path class="cls-16" d="m1779.28,790.97c0,.97-.14,1.92-.38,2.81-1.23,4.45-5.3,7.72-10.15,7.72-5.81,0-10.52-4.71-10.52-10.52s4.71-10.52,10.52-10.52c3.4,0,6.42,1.61,8.33,4.1,1.38,1.78,2.19,4.01,2.19,6.43Z"/>
    </g>
    <g>
      <path class="cls-16" d="m1938.52,698.84c-26.8,0-48.6,21.79-48.6,48.59h9.33c0-21.65,17.61-39.27,39.28-39.27s39.27,17.61,39.27,39.27c0,4.35-.71,8.53-2.02,12.43-3.86,11.54-12.93,20.71-24.42,24.68-3.34,1.16-6.91,1.9-10.6,2.1v9.34c4.31-.19,8.47-.95,12.42-2.2,15.76-4.99,28.08-17.83,32.34-33.91,1.05-3.97,1.61-8.14,1.61-12.43,0-26.8-21.8-48.59-48.59-48.59Z"/>
      <path class="cls-16" d="m1953.54,790.97c0,.97-.14,1.92-.38,2.81-1.23,4.45-5.31,7.72-10.15,7.72-5.81,0-10.52-4.71-10.52-10.52s4.71-10.52,10.52-10.52c3.39,0,6.4,1.61,8.33,4.1,1.38,1.78,2.19,4.01,2.19,6.43Z"/>
    </g>
    <g>
      <path class="cls-16" d="m2112.76,698.84c-26.8,0-48.59,21.79-48.59,48.59h9.33c0-21.65,17.61-39.27,39.27-39.27s39.28,17.61,39.28,39.27c0,4.35-.71,8.53-2.02,12.43-3.86,11.54-12.93,20.71-24.42,24.68-3.36,1.16-6.91,1.9-10.6,2.1v9.34c4.31-.19,8.47-.95,12.42-2.2,15.76-4.99,28.08-17.83,32.34-33.91,1.05-3.97,1.61-8.14,1.61-12.43,0-26.8-21.8-48.59-48.6-48.59Z"/>
      <path class="cls-16" d="m2127.79,790.97c0,.97-.14,1.92-.38,2.81-1.23,4.45-5.31,7.72-10.15,7.72-5.81,0-10.52-4.71-10.52-10.52s4.71-10.52,10.52-10.52c3.39,0,6.4,1.61,8.33,4.1,1.38,1.78,2.19,4.01,2.19,6.43Z"/>
    </g>
  </g>
  <path class="cls-9" d="m1689.32,1229.14h-56.67c-6.55,0-12.95-5.36-14.21-11.91l-10.93-56.67c-1.26-6.55,3.06-11.91,9.61-11.91h56.67c6.55,0,12.95,5.36,14.21,11.91l10.93,56.67c1.26,6.55-3.06,11.91-9.61,11.91Z"/>
  <path class="cls-9" d="m1832.32,1229.14h-56.67c-6.55,0-12.95-5.36-14.21-11.91l-10.93-56.67c-1.26-6.55,3.06-11.91,9.61-11.91h56.67c6.55,0,12.95,5.36,14.21,11.91l10.93,56.67c1.26,6.55-3.06,11.91-9.61,11.91Z"/>
  <path class="cls-16" d="m1975.33,1229.14h-56.67c-6.55,0-12.95-5.36-14.21-11.91l-10.93-56.67c-1.26-6.55,3.06-11.91,9.61-11.91h56.67c6.55,0,12.95,5.36,14.21,11.91l10.93,56.67c1.26,6.55-3.06,11.91-9.61,11.91Z"/>
  <path class="cls-9" d="m1260.32,1229.14h-56.67c-6.55,0-12.95-5.36-14.21-11.91l-10.93-56.67c-1.26-6.55,3.06-11.91,9.61-11.91h56.67c6.55,0,12.95,5.36,14.21,11.91l10.93,56.67c1.26,6.55-3.06,11.91-9.61,11.91Z"/>
  <path class="cls-6" d="m1198.21,1059.01h-24.35c-2.82,0-5.56-2.3-6.11-5.12l-4.7-24.35c-.54-2.82,1.32-5.12,4.13-5.12h24.35c2.82,0,5.56,2.3,6.11,5.12l4.7,24.35c.54,2.82-1.32,5.12-4.13,5.12Z"/>
  <path class="cls-9" d="m1403.32,1229.14h-56.67c-6.55,0-12.94-5.36-14.21-11.91l-10.93-56.67c-1.26-6.55,3.06-11.91,9.61-11.91h56.67c6.55,0,12.95,5.36,14.21,11.91l10.93,56.67c1.26,6.55-3.06,11.91-9.61,11.91Z"/>
  <path class="cls-9" d="m1546.32,1229.14h-56.67c-6.55,0-12.95-5.36-14.21-11.91l-10.93-56.67c-1.26-6.55,3.06-11.91,9.61-11.91h56.67c6.55,0,12.95,5.36,14.21,11.91l10.93,56.67c1.26,6.55-3.06,11.91-9.61,11.91Z"/>
  <path class="cls-16" d="m2118.33,1229.14h-56.67c-6.55,0-12.94-5.36-14.21-11.91l-10.93-56.67c-1.26-6.55,3.06-11.91,9.61-11.91h56.67c6.55,0,12.95,5.36,14.21,11.91l10.93,56.67c1.26,6.55-3.06,11.91-9.61,11.91Z"/>
  <path class="cls-9" d="m1665.58,1106.06h-56.67c-6.55,0-12.95-5.36-14.21-11.91l-10.93-56.67c-1.26-6.55,3.06-11.91,9.61-11.91h56.67c6.55,0,12.95,5.36,14.21,11.91l10.93,56.67c1.26,6.55-3.06,11.91-9.61,11.91Z"/>
  <path class="cls-9" d="m1808.58,1106.06h-56.67c-6.55,0-12.95-5.36-14.21-11.91l-10.93-56.67c-1.26-6.55,3.06-11.91,9.61-11.91h56.67c6.55,0,12.95,5.36,14.21,11.91l10.93,56.67c1.26,6.55-3.06,11.91-9.61,11.91Z"/>
  <path class="cls-16" d="m1951.58,1106.06h-56.67c-6.55,0-12.95-5.36-14.21-11.91l-10.93-56.67c-1.26-6.55,3.06-11.91,9.61-11.91h56.67c6.55,0,12.95,5.36,14.21,11.91l10.93,56.67c1.26,6.55-3.06,11.91-9.61,11.91Z"/>
  <path class="cls-16" d="m2094.59,1106.06h-56.67c-6.55,0-12.95-5.36-14.21-11.91l-10.93-56.67c-1.26-6.55,3.06-11.91,9.61-11.91h56.67c6.55,0,12.95,5.36,14.21,11.91l10.93,56.67c1.26,6.55-3.06,11.91-9.61,11.91Z"/>
  <path class="cls-9" d="m1714.49,1359.6h-56.67c-6.55,0-12.94-5.36-14.21-11.91l-10.93-56.67c-1.26-6.55,3.06-11.91,9.61-11.91h56.67c6.55,0,12.95,5.36,14.21,11.91l10.93,56.67c1.26,6.55-3.06,11.91-9.61,11.91Z"/>
  <path class="cls-9" d="m1857.49,1359.6h-56.67c-6.55,0-12.95-5.36-14.21-11.91l-10.93-56.67c-1.26-6.55,3.06-11.91,9.61-11.91h56.67c6.55,0,12.95,5.36,14.21,11.91l10.93,56.67c1.26,6.55-3.06,11.91-9.61,11.91Z"/>
  <path class="cls-16" d="m2000.49,1359.6h-56.67c-6.55,0-12.95-5.36-14.21-11.91l-10.93-56.67c-1.26-6.55,3.06-11.91,9.61-11.91h56.67c6.55,0,12.95,5.36,14.21,11.91l10.93,56.67c1.26,6.55-3.06,11.91-9.61,11.91Z"/>
  <path class="cls-9" d="m1285.48,1359.6h-56.67c-6.55,0-12.95-5.36-14.21-11.91l-10.93-56.67c-1.26-6.55,3.06-11.91,9.61-11.91h56.67c6.55,0,12.95,5.36,14.21,11.91l10.93,56.67c1.26,6.55-3.06,11.91-9.61,11.91Z"/>
  <path class="cls-9" d="m1428.48,1359.6h-56.67c-6.55,0-12.95-5.36-14.21-11.91l-10.93-56.67c-1.26-6.55,3.06-11.91,9.61-11.91h56.67c6.55,0,12.95,5.36,14.21,11.91l10.93,56.67c1.26,6.55-3.06,11.91-9.61,11.91Z"/>
  <path class="cls-9" d="m1571.49,1359.6h-56.67c-6.55,0-12.95-5.36-14.21-11.91l-10.93-56.67c-1.26-6.55,3.06-11.91,9.61-11.91h56.67c6.55,0,12.95,5.36,14.21,11.91l10.93,56.67c1.26,6.55-3.06,11.91-9.61,11.91Z"/>
  <path class="cls-16" d="m2143.49,1359.6h-56.67c-6.55,0-12.95-5.36-14.21-11.91l-10.93-56.67c-1.26-6.55,3.06-11.91,9.61-11.91h56.67c6.55,0,12.94,5.36,14.21,11.91l10.93,56.67c1.26,6.55-3.06,11.91-9.61,11.91Z"/>
  <path class="cls-9" d="m1739.65,1490.05h-56.67c-6.55,0-12.95-5.36-14.21-11.91l-10.93-56.67c-1.26-6.55,3.06-11.91,9.61-11.91h56.67c6.55,0,12.95,5.36,14.21,11.91l10.93,56.67c1.26,6.55-3.06,11.91-9.61,11.91Z"/>
  <path class="cls-9" d="m1882.65,1490.05h-56.67c-6.55,0-12.95-5.36-14.21-11.91l-10.93-56.67c-1.26-6.55,3.06-11.91,9.61-11.91h56.67c6.55,0,12.95,5.36,14.21,11.91l10.93,56.67c1.26,6.55-3.06,11.91-9.61,11.91Z"/>
  <path class="cls-16" d="m2025.65,1490.05h-56.67c-6.55,0-12.95-5.36-14.21-11.91l-10.93-56.67c-1.26-6.55,3.06-11.91,9.61-11.91h56.67c6.55,0,12.95,5.36,14.21,11.91l10.93,56.67c1.26,6.55-3.06,11.91-9.61,11.91Z"/>
  <path class="cls-9" d="m1310.65,1490.05h-56.67c-6.55,0-12.95-5.36-14.21-11.91l-10.93-56.67c-1.26-6.55,3.06-11.91,9.61-11.91h56.67c6.55,0,12.94,5.36,14.21,11.91l10.93,56.67c1.26,6.55-3.06,11.91-9.61,11.91Z"/>
  <path class="cls-6" d="m1453.65,1490.05h-56.67c-6.55,0-12.94-5.36-14.21-11.91l-10.93-56.67c-1.26-6.55,3.06-11.91,9.61-11.91h56.67c6.55,0,12.95,5.36,14.21,11.91l10.93,56.67c1.26,6.55-3.06,11.91-9.61,11.91Z"/>
  <path class="cls-9" d="m1596.65,1490.05h-56.67c-6.55,0-12.95-5.36-14.21-11.91l-10.93-56.67c-1.26-6.55,3.06-11.91,9.61-11.91h56.67c6.55,0,12.95,5.36,14.21,11.91l10.93,56.67c1.26,6.55-3.06,11.91-9.61,11.91Z"/>
  <path class="cls-16" d="m2168.66,1490.05h-56.67c-6.55,0-12.95-5.36-14.21-11.91l-10.93-56.67c-1.26-6.55,3.06-11.91,9.61-11.91h56.67c6.55,0,12.95,5.36,14.21,11.91l10.93,56.67c1.26,6.55-3.06,11.91-9.61,11.91Z"/>
  <path class="cls-9" d="m1763.39,1613.14h-56.67c-6.55,0-12.95-5.36-14.21-11.91l-10.93-56.67c-1.26-6.55,3.06-11.91,9.61-11.91h56.67c6.55,0,12.95,5.36,14.21,11.91l10.93,56.67c1.26,6.55-3.06,11.91-9.61,11.91Z"/>
  <path class="cls-9" d="m1906.4,1613.14h-56.67c-6.55,0-12.95-5.36-14.21-11.91l-10.93-56.67c-1.26-6.55,3.06-11.91,9.61-11.91h56.67c6.55,0,12.95,5.36,14.21,11.91l10.93,56.67c1.26,6.55-3.06,11.91-9.61,11.91Z"/>
  <path class="cls-16" d="m2049.4,1613.14h-56.67c-6.55,0-12.95-5.36-14.21-11.91l-10.93-56.67c-1.26-6.55,3.06-11.91,9.61-11.91h56.67c6.55,0,12.95,5.36,14.21,11.91l10.93,56.67c1.26,6.55-3.06,11.91-9.61,11.91Z"/>
  <path class="cls-9" d="m1334.39,1613.14h-56.67c-6.55,0-12.95-5.36-14.21-11.91l-10.93-56.67c-1.26-6.55,3.06-11.91,9.61-11.91h56.67c6.55,0,12.95,5.36,14.21,11.91l10.93,56.67c1.26,6.55-3.06,11.91-9.61,11.91Z"/>
  <path class="cls-9" d="m1477.39,1613.14h-56.67c-6.55,0-12.95-5.36-14.21-11.91l-10.93-56.67c-1.26-6.55,3.06-11.91,9.61-11.91h56.67c6.55,0,12.95,5.36,14.21,11.91l10.93,56.67c1.26,6.55-3.06,11.91-9.61,11.91Z"/>
  <path class="cls-9" d="m1620.39,1613.14h-56.67c-6.55,0-12.95-5.36-14.21-11.91l-10.93-56.67c-1.26-6.55,3.06-11.91,9.61-11.91h56.67c6.55,0,12.95,5.36,14.21,11.91l10.93,56.67c1.26,6.55-3.06,11.91-9.61,11.91Z"/>
  <path class="cls-9" d="m1369.97,1036.64h-150.13c-2.21,0-4.02-1.81-4.02-4.02h0c0-2.21,1.81-4.02,4.02-4.02h150.13c2.21,0,4.02,1.81,4.02,4.02h0c0,2.21-1.81,4.02-4.02,4.02Z"/>
  <path class="cls-9" d="m1374.54,1054.83h-150.13c-2.21,0-4.02-1.81-4.02-4.02h0c0-2.21,1.81-4.02,4.02-4.02h150.13c2.21,0,4.02,1.81,4.02,4.02h0c0,2.21-1.81,4.02-4.02,4.02Z"/>
  <g>
    <path class="cls-11" d="m1208.95,901.25h-51.52c-4.22,0-7.67-3.45-7.67-7.67h0c0-4.22,3.45-7.67,7.67-7.67h51.52c4.22,0,7.67,3.45,7.67,7.67h0c0,4.22-3.45,7.67-7.67,7.67Z"/>
    <path class="cls-11" d="m1350.32,901.25h-51.52c-4.22,0-7.67-3.45-7.67-7.67h0c0-4.22,3.45-7.67,7.67-7.67h51.52c4.22,0,7.67,3.45,7.67,7.67h0c0,4.22-3.45,7.67-7.67,7.67Z"/>
    <path class="cls-11" d="m1491.69,901.25h-51.52c-4.22,0-7.67-3.45-7.67-7.67h0c0-4.22,3.45-7.67,7.67-7.67h51.52c4.22,0,7.67,3.45,7.67,7.67h0c0,4.22-3.45,7.67-7.67,7.67Z"/>
    <path class="cls-11" d="m1633.05,901.25h-51.52c-4.22,0-7.67-3.45-7.67-7.67h0c0-4.22,3.45-7.67,7.67-7.67h51.52c4.22,0,7.67,3.45,7.67,7.67h0c0,4.22-3.45,7.67-7.67,7.67Z"/>
    <path class="cls-11" d="m1774.42,901.25h-51.52c-4.22,0-7.67-3.45-7.67-7.67h0c0-4.22,3.45-7.67,7.67-7.67h51.52c4.22,0,7.67,3.45,7.67,7.67h0c0,4.22-3.45,7.67-7.67,7.67Z"/>
    <path class="cls-11" d="m1915.79,901.25h-51.52c-4.22,0-7.67-3.45-7.67-7.67h0c0-4.22,3.45-7.67,7.67-7.67h51.52c4.22,0,7.67,3.45,7.67,7.67h0c0,4.22-3.45,7.67-7.67,7.67Z"/>
    <path class="cls-11" d="m2057.16,901.25h-51.52c-4.22,0-7.67-3.45-7.67-7.67h0c0-4.22,3.45-7.67,7.67-7.67h51.52c4.22,0,7.67,3.45,7.67,7.67h0c0,4.22-3.45,7.67-7.67,7.67Z"/>
  </g>
  <path class="cls-17" d="m1731.31,1107.18c-11.38,0-19.66-3.61-24.18-10.62-8.66-13.44-1.97-32.28,19.86-55.99,15.95-17.32,34.58-31.04,34.76-31.18.73-.54,1.76-.38,2.3.35.54.73.38,1.76-.35,2.3-.73.53-72.52,53.69-53.8,82.74,5.93,9.2,18.62,9.81,28.23,8.7,17.79-2.06,40.98-11.64,62.04-25.62,21.8-14.48,37.15-30.8,42.13-44.77,3.26-9.17,2.25-15.66-3-19.3-6.79-4.7-20.98-4.7-37.95-.01-16.26,4.49-32.62,12.58-42.7,21.12-.69.59-1.73.5-2.32-.19-.59-.69-.5-1.73.19-2.32,10.42-8.82,27.26-17.16,43.95-21.77,18.17-5.02,33-4.85,40.7.48,4.56,3.15,8.99,9.72,4.23,23.1-5.21,14.63-21.03,31.54-43.41,46.4-21.47,14.26-45.2,24.04-63.48,26.15-2.52.29-4.92.44-7.2.44Z"/>
  <path class="cls-15" d="m2028.79,1013.76l-5.85-11.03s2.9-19.66-21.73-32.1c0,0-9-3.67-14.09,3.68-4.68,6.76,8.92,5.54,8.19,17.11s4.76,18.36,12.41,22.13l6.32,7.32,14.75-7.11Z"/>
  <path class="cls-8" d="m2261.61,987.38s-21.16,103.84-137.58,137.77c-36.34,10.59-118.91-109.06-118.91-109.06,0,0,2.9-11.03,21.09-8.5,0,0,80.39,53.22,90.51,59,8.98,5.13,68.04-65.95,94.96-77.41,26.92-11.47,49.92-1.8,49.92-1.8Z"/>
  <g>
    <rect class="cls-17" x="1974.07" y="921.94" width="25.62" height="128.88" transform="translate(1378.83 3119.67) rotate(-100.49)"/>
    <polygon class="cls-15" points="1894.05 1003.57 1925.85 1010.71 1921.18 985.52 1894.05 1003.57"/>
    <path class="cls-15" d="m2064.19,967.68l1.48,7.96c.91,4.9-2.33,9.61-7.23,10.51l-5.86,1.09-4.67-25.19,6.38-1.18c4.62-.85,9.05,2.19,9.91,6.81Z"/>
  </g>
  <path class="cls-14" d="m2400.61,1640.15s14.44,13.18,11.62,22.55c-2.82,9.37-15.85,15.61-17.61,27.06-1.76,11.45-8.81,17.69-15.15,17.69h-30.23s-4.67-8.05,6.61-10.48c11.27-2.43,15.52-15.88,14.82-28.37-.71-12.49,1.06-29.14,1.06-29.14l23.95-5.55,4.93,6.24Z"/>
  <path class="cls-14" d="m2223.42,1674.25s2.59,30-3.75,33.12l-81.15-.17s0-9.37,13.03-11.45c13.03-2.08,35.93-9.71,39.81-26.71,3.88-17,32.06,5.2,32.06,5.2Z"/>
  <path class="cls-6" d="m2154.9,1250.51s4.28,52.58,9.31,115.79c6.84,85.86,15.06,191.33,15.87,211.31,1.41,34.69,7.05,90.19,7.05,90.19,0,0,13.38,13.18,40.16,7.63,0,0,23.86-79.22,30.68-163.04.11-1.37.21-2.76.32-4.14,6.34-85.33,16.2-265.01,16.2-265.01l-119.59,7.28Z"/>
  <path class="cls-3" d="m2154.9,1250.51s4.28,52.58,9.31,115.79l93.76,146.08c.11-1.37.21-2.76.32-4.14,6.34-85.33,16.2-265.01,16.2-265.01l-119.59,7.28Z"/>
  <path class="cls-6" d="m2174.45,1256.75s77.15,190.43,127.88,279.92c50.73,89.49,66.58,114.47,66.58,114.47,0,0,29.06-11.45,31.71-19.25,0,0-19.4-172.77-53.37-214.89-19.2-23.8-41.75-95.21-42.8-120.19-1.06-24.97-6.87-74.4-6.87-74.4l-123.12,34.34Z"/>
  <path class="cls-15" d="m2275.95,963.28s-52.2,25.19-82.29,15.84c0,0,7.41-9.34,20.37-16.3-1.04-6.04-1.85-11.28-2.31-15.73-1.27-10.26-1.27-16.07-1.27-16.07l20.14-15.84,19.1-15.16c-1.5,42.62,26.27,63.25,26.27,63.25Z"/>
  <path class="cls-11" d="m2151.61,1254.85c.92.8,1.97,1.25,3.13,1.25,11.34-.23,44.33,6.04,72.21,3.19,23.61-2.28,44.45-9.11,66.79-18.91,3.01-1.37,9.85-5.02,9.72-8.21-.12-3.65-.46-8.78-.92-15.39-.94-13.02-2.25-31.51-2.67-53.43-.31-16.25-.14-34.38,1.04-53.59.07-1.29.13-2.59.19-3.89.34-7.04.5-14.13.5-21.06.12-22.34-1.49-43.65-4.73-62.68-5.68-33.05-16.33-58.92-32.06-70.43-2.09-1.6-15.06,4.67-27.09,10.48-11,5.36-21.99,5.93-32.4,3.88l-10.42,9.11c-12.63,11.5-26.52,27.34-32.65,51.28-5.09,20.29-8.1,56.98-9.72,95.05-.8,17.32-1.38,34.64-1.61,51.16v.57c-.12,1.71-.12,3.43-.12,5.14-.57,42.28,0,75.9.81,76.47Z"/>
  <path class="cls-5" d="m2250.03,916.33s-13.19,24.05-38.31,30.77c-1.27-10.26-1.27-16.07-1.27-16.07l20.14-15.84,19.44,1.14Z"/>
  <path class="cls-15" d="m2201.26,930.33s49.8,8.15,54.47-22.47c4.67-30.61,14.25-50.18-17.35-56.67-31.6-6.5-39.57,4.27-43.66,14.11-4.08,9.84-6.3,62.12,6.53,65.03Z"/>
  <path class="cls-4" d="m2273.83,847.53c.45-.52,1.5-.94,3.82-1.06,0,0-1.85-1.16-4.34-1.22-.48-3.23-2.2-8.94-7.75-10.33,0,0,2.98,1.59,3.37,5.02-6.43-6.61-20.21-11.41-58.38-8.4-50.29,3.97-33.72,36.17-27.21,40.01,6.51,3.84,22.9-6.69,35.03-5.72,12.13.96,14.44,18.49,18.55,20.9,4.12,2.41,2.5-1.85,8.07-4.36,5.57-2.52,6.1,6.71,4.49,12.71-1.61,6,6.04,13.91,6.04,13.91l7.73-8.33c7.73-8.33,15.02-43.6,11.5-51.11-.31-.66-.62-1.34-.94-2.01Z"/>
  <path class="cls-15" d="m2022.83,1002.2s1.71-6.77-2.98-9.81c-4.7-3.04-9.01-11.32-10.99-10.19-4.1,2.32,2.24,9.54,1.08,18.55-.41,3.15,6.93,11.41,12.89,1.46Z"/>
  <path class="cls-8" d="m2299.87,1163.35c-.31-16.25-.14-34.38,1.04-53.59.07-1.29.13-2.59.19-3.89-4.73-23.45-11.89-44.26-22.43-44.94,0,0-31.4,49.34,21.2,102.42Z"/>
  <path class="cls-15" d="m2341.4,1248.44s-2.62,25.44-5.49,30.26c-2.87,4.81-15.1,20.19-20.31,23.21-5.21,3.02,3.18-20.26,2.12-24.79-1.06-4.53-4.29,8.27-6.58,8.57-2.3.3-1.71-11.22-1.79-15.41-.08-4.19,11.17-14.54,15.14-23.47,3.97-8.93,16.91,1.64,16.91,1.64Z"/>
  <path class="cls-11" d="m2264.78,951.44s31.51,14.92,46.61,37.86c23.43,35.58,50.59,165.24,51.1,177.25.5,12.01-19.83,96.78-19.83,96.78,0,0-20.62-1.36-25.93-11.76,0,0,4.12-87.1,1.51-92.7s-85.95-116.83-76.57-140.57c9.37-23.74,23.11-66.85,23.11-66.85Z"/>
  <polygon class="cls-17" points="1910.34 992.73 1912 1007.6 1894.05 1003.57 1910.34 992.73"/>
  <path class="cls-2" d="m2592.12,1706.97h-90.8c-4.87-4.13,3.37-13.5,11.97-14.13,3.74-.28,8.46.5,13.86,1.64,1.25-16.6,8.38-91.2,35.28-88.2,30.24,3.36,0,32.85-8.55,50.32-6.33,12.94-13.01,31.49-16.06,40.24,2.45.53,5,1.05,7.59,1.53,4.01-12.31,18.92-53.7,37.88-51.29,22.27,2.82,13.32,19.42-2.46,29.27-11.58,7.24-25.79,17.54-32.55,22.51,5.72.93,11.7,1.56,17.76,1.42,15.55-.37,23.14,4.21,26.09,6.68Z"/>
  <path class="cls-2" d="m519.42,1702.65c-4.81-7.56-19.29-27.18-38.58-24.58-21.02,2.83,23.21,16.68,36.75,24.64-3.01.04-5.59-.2-7.49-.88-9.05-3.23-24.55,2.96-29.51,5.13h86.18c-.6-2.06-2.15-5.43-6.16-7.88-1.42-.87-4.26-.99-7.93-.71,5.12-6.04,8.68-25.34-5.58-20.37-10.42,3.63-10.39,15.42-9.37,22.39-2.22.35-4.46.7-6.69,1.02-4.29-21.87-19.47-85.95-50.22-87.66-31.18-1.73,26.44,66.46,45.63,88.27-2.46.3-4.82.52-7.02.62Z"/>
  <path class="cls-1" d="m180.46,1706.06h2697.48c1.69,0,3.06,1.37,3.06,3.06v1.04c0,1.69-1.37,3.06-3.06,3.06H180.46c-1.69,0-3.06-1.37-3.06-3.06v-1.04c0-1.69,1.37-3.06,3.06-3.06Z"/>
</svg>