<?xml version="1.0" encoding="UTF-8"?>
<svg id="_Слой_1" data-name="Слой 1" xmlns="http://www.w3.org/2000/svg" viewBox="0 0 3000 2000">
  <defs>
    <style>
      .cls-1 {
        fill: #005100;
      }

      .cls-1, .cls-2, .cls-3, .cls-4, .cls-5, .cls-6, .cls-7, .cls-8, .cls-9, .cls-10, .cls-11, .cls-12, .cls-13, .cls-14, .cls-15 {
        stroke-width: 0px;
      }

      .cls-2 {
        fill: #2e3552;
      }

      .cls-3 {
        fill: #82b378;
      }

      .cls-4 {
        fill: #7c1b40;
      }

      .cls-5 {
        fill: #8c013c;
      }

      .cls-6 {
        fill: #c7dcfb;
      }

      .cls-7 {
        fill: #afcdfb;
      }

      .cls-8 {
        fill: #dfebfd;
      }

      .cls-9 {
        fill: #fff;
      }

      .cls-10 {
        fill: #a8d29f;
      }

      .cls-11 {
        fill: #ebf3fa;
      }

      .cls-12 {
        fill: #78acea;
      }

      .cls-13 {
        fill: #699dee;
      }

      .cls-14 {
        fill: #d7e9ff;
      }

      .cls-15 {
        fill: #5288d8;
      }
    </style>
  </defs>
  <path class="cls-11" d="m347.96,1712.94s-309.76-332.59-52.39-692.66c228.36-319.48,494.61-297.64,689.95-167.99,83.2,55.22,323.07,6.81,527.23-318.28,278.42-443.33,1243.52-174.45,1067.55,507.62-85.16,330.07,259.16,342.07,83.72,672.01l-2316.07-.7Z"/>
  <path class="cls-10" d="m942.83,1069.97s-153.24-218.13-213.13-189.85c-59.89,28.28,213.13,189.85,213.13,189.85Z"/>
  <path class="cls-10" d="m933.09,1011.36s-23.41-164.01-60.31-157.58c-36.9,6.44,60.31,157.58,60.31,157.58Z"/>
  <g>
    <path class="cls-3" d="m803.53,1522.56s14.73-72.98-42.47-82.15c0,0-38.8-1.35-61.64,13.28,0,0,64.88,37.46,57.16,49.1-7.72,11.64-69.28-46.95-69.28-46.95,0,0-69.55,30.46-85.07,52.52,0,0,82.19,14.64,71.84,24.03-10.34,9.38-96.57-1.88-96.57-1.88,0,0-55.57,44.76-31.37,80.39,24.2,35.63,51.82,35.38,60.56,29.18,8.74-6.19,51.54-57.35,56.98-50.39,5.44,6.96-13.39,50.15-35.67,64.13,0,0,69.97,23.56,91.04-6.3,21.07-29.85,11.33-53.07,24.69-71.28,13.36-18.21,28.68-26.75,25.94-14.25-2.74,12.49-30.66,38.75-30.78,62.62-.12,23.87-2.49,41.25,24.78,20.14,27.27-21.11,63.48-69.92,51.67-96.05l-11.81-26.13Z"/>
    <g>
      <path class="cls-3" d="m576.86,1595.04s163.19-99.6,226.67-72.48c0,0,21.78,19.84,59.25,28.06l9.86,8.46s-45.92-14.33-57.3-10.39c0,0-16.84-68.13-238.48,46.36Z"/>
      <path class="cls-3" d="m862.78,1550.61s50.59,6.47,79.5,52.39l-6.17,4.21s-38.76-42.52-70.11-50.11c-31.35-7.58-3.22-6.49-3.22-6.49Z"/>
    </g>
  </g>
  <path class="cls-10" d="m853.48,1309.61s118.5-66.36,63.2-156.42c0,0-44.24-55.3-91.64-69.52,0,0,25.28,134.3,0,137.46-25.28,3.16-17.38-151.68-17.38-151.68,0,0-124.82-60.04-173.8-55.3,0,0,77.42,131.14,52.14,127.98-25.28-3.16-112.18-135.88-112.18-135.88,0,0-127.98-23.7-148.52,52.14-20.54,75.84,12.64,113.76,31.6,118.5,18.96,4.74,140.62,3.16,137.46,18.96-3.16,15.8-85.32,41.08-131.14,26.86,0,0,50.56,124.82,116.92,118.5,66.36-6.32,86.9-47.4,127.98-50.56,41.08-3.16,71.1,7.9,50.56,18.96-20.54,11.06-90.06,3.62-123.24,31.83-33.18,28.21-60.04,45.59,1.58,58.23,61.62,12.64,172.22,4.74,194.34-42.66l22.12-47.4Z"/>
  <g>
    <path class="cls-3" d="m483.76,1082.09s331.8,107.44,369.72,227.52c0,0-1.58,53.72,31.6,115.34v23.7s-34.76-80.58-53.72-91.64c0,0,74.26-104.28-347.6-274.92Z"/>
    <path class="cls-3" d="m885.08,1424.95s51.17,77.7,22,172.29l-13.16-3.54s12.78-104.18-13.99-156.58c-26.77-52.4,5.16-12.18,5.16-12.18Z"/>
  </g>
  <path class="cls-4" d="m973.92,754.4l-177.3,916.62c-3.61,18.64,10.68,35.95,29.67,35.95h93.51l54.13-952.57Z"/>
  <g>
    <path class="cls-6" d="m2152.48,1016.79s-79.75-50.87-37.7-111.29c0,0,32.97-36.69,66.5-44.68,0,0-22.94,92.38-5.49,95.58,17.45,3.21,18.14-104.78,18.14-104.78,0,0,89.19-36.77,123.06-31.52,0,0-59.07,88.1-41.37,86.91,17.71-1.19,83.43-90.01,83.43-90.01,0,0,89.94-11.37,101.2,42.19,11.25,53.56-13.33,78.6-26.7,81.14-13.37,2.54-97.91-3.42-96.34,7.7,1.57,11.11,57.69,31.97,90.12,23.91,0,0-40.14,84.78-86.03,77.73-45.89-7.04-58.54-36.43-86.97-40.27-28.44-3.84-49.76,2.66-35.91,11.17,13.84,8.51,62.48,6.12,84.43,27.05,21.95,20.94,39.93,34.1-3.42,40.43-43.35,6.33-119.95-3.58-133.43-37.42l-13.49-33.84Z"/>
    <g>
      <path class="cls-6" d="m2418.65,873.33s-235.01,61.47-266.17,143.45c0,0-1.04,37.42-26.58,78.94l-.95,16.48s27.39-54.65,41.01-61.58c0,0-47.48-75.48,252.68-177.29Z"/>
      <path class="cls-6" d="m2125.9,1095.73s-38.68,51.99-22.17,118.93l9.29-1.93s-4.73-72.95,15.98-108.32c20.71-35.37-3.1-8.67-3.1-8.67Z"/>
    </g>
  </g>
  <g>
    <path class="cls-8" d="m1937.75,795.96s-122.53-26.91-97.78-121.34c0,0,24.29-60.74,62.38-86.01,0,0,13.64,125.49,36.83,121.51,23.19-3.98-25.28-138.74-25.28-138.74,0,0,94.25-86.52,138.82-95.46,0,0-33.3,136.67-11.8,127.1s62.75-150.18,62.75-150.18c0,0,106.78-55.24,145.26,6.29,38.48,61.54,19.31,103.95,3.82,113.22-15.49,9.27-123.46,40.47-116.43,53.59,7.03,13.12,86.43,13.45,123.12-11.4,0,0-11.25,123.89-71.6,136.08-60.35,12.2-89.52-18.61-126.68-10.4-37.16,8.21-60.73,26.04-39.61,30.31,21.12,4.27,80.58-20.93,117.47-4.88,36.89,16.04,65.29,24.21,14.21,51.9-51.08,27.69-150.97,50.34-183.22,14.37l-32.26-35.97Z"/>
    <g>
      <path class="cls-8" d="m2203.61,495.77s-264.52,183.89-265.86,300.2c0,0,15.79,47.06,2.97,110.43l6.35,20.95s9.13-80.55,22.93-95.4c0,0-93.59-72.28,233.6-336.17Z"/>
      <path class="cls-8" d="m1940.72,906.39s-24.41,82.4,26.72,158.19l10.69-6.65s-39.21-88.67-29.59-142.16c9.62-53.49-7.82-9.38-7.82-9.38Z"/>
    </g>
  </g>
  <path class="cls-12" d="m976.05,750.69l-117.52,899.97c-3.9,29.84,19.34,56.3,49.43,56.3h172.4l-97.2-959.53-7.11,3.25Z"/>
  <path class="cls-13" d="m976.05,750.69l-52.61,894.24c-1.98,33.66,24.78,62.04,58.5,62.04h257.12l-263.01-956.28Z"/>
  <path class="cls-15" d="m974.08,757.99l25.58,886.94c-1.98,33.66,24.78,62.04,58.5,62.04h257.12l-341.2-948.98Z"/>
  <path class="cls-14" d="m2205.1,1706.97h-1013.8c-25.31,0-47.01-18.09-51.56-42.99l-154.26-843.62c-7-38.3,22.41-73.59,61.35-73.59h1001.86c25.31,0,47.01,18.09,51.56,42.99l156.41,855.36c5.89,32.19-18.84,61.85-51.56,61.85Z"/>
  <path class="cls-5" d="m1005.55,929.92h1121.04l-28.74-159.28c-2.49-13.82-14.52-23.87-28.56-23.87H983.42c-5.93,0-10.42,5.38-9.35,11.21l31.47,171.93Z"/>
  <g>
    <g>
      <path class="cls-12" d="m1031.76,698.84c-26.8,0-48.6,21.79-48.6,48.59h9.34c0-21.65,17.61-39.27,39.27-39.27s39.28,17.61,39.28,39.27c0,4.35-.71,8.53-2.02,12.43-3.86,11.54-12.93,20.71-24.42,24.68-3.36,1.16-6.91,1.9-10.6,2.1v9.34c4.31-.19,8.47-.95,12.42-2.2,15.76-4.99,28.08-17.83,32.34-33.91,1.05-3.97,1.61-8.14,1.61-12.43,0-26.8-21.8-48.59-48.6-48.59Z"/>
      <path class="cls-12" d="m1046.79,790.97c0,.97-.14,1.92-.38,2.81-1.23,4.45-5.31,7.72-10.15,7.72-5.81,0-10.52-4.71-10.52-10.52s4.71-10.52,10.52-10.52c3.39,0,6.4,1.61,8.33,4.1,1.38,1.78,2.19,4.01,2.19,6.43Z"/>
    </g>
    <g>
      <path class="cls-12" d="m1206.01,698.84c-26.8,0-48.6,21.79-48.6,48.59h9.33c0-21.65,17.62-39.27,39.28-39.27s39.27,17.61,39.27,39.27c0,4.35-.71,8.53-2.02,12.43-3.86,11.54-12.93,20.71-24.4,24.68-3.36,1.16-6.92,1.9-10.62,2.1v9.34c4.31-.19,8.47-.95,12.42-2.2,15.77-4.99,28.09-17.83,32.35-33.91,1.05-3.97,1.61-8.14,1.61-12.43,0-26.8-21.8-48.59-48.6-48.59Z"/>
      <path class="cls-12" d="m1221.04,790.97c0,.97-.14,1.92-.38,2.81-1.23,4.45-5.3,7.72-10.15,7.72-5.81,0-10.52-4.71-10.52-10.52s4.71-10.52,10.52-10.52c3.4,0,6.41,1.61,8.34,4.1,1.37,1.78,2.18,4.01,2.18,6.43Z"/>
    </g>
    <g>
      <path class="cls-12" d="m1380.27,698.84c-26.8,0-48.6,21.79-48.6,48.59h9.33c0-21.65,17.61-39.27,39.28-39.27s39.27,17.61,39.27,39.27c0,4.35-.71,8.53-2.02,12.43-3.86,11.54-12.93,20.71-24.4,24.68-3.36,1.16-6.92,1.9-10.62,2.1v9.34c4.3-.19,8.47-.95,12.42-2.2,15.78-5,28.08-17.83,32.34-33.91,1.05-3.97,1.61-8.14,1.61-12.43,0-26.8-21.8-48.59-48.59-48.59Z"/>
      <path class="cls-12" d="m1395.29,790.97c0,.97-.14,1.92-.38,2.81-1.23,4.45-5.31,7.72-10.15,7.72-5.81,0-10.52-4.71-10.52-10.52s4.71-10.52,10.52-10.52c3.39,0,6.4,1.61,8.34,4.1,1.37,1.78,2.18,4.01,2.18,6.43Z"/>
    </g>
    <g>
      <path class="cls-12" d="m1554.52,698.84c-26.8,0-48.59,21.79-48.59,48.59h9.33c0-21.65,17.61-39.27,39.27-39.27s39.28,17.61,39.28,39.27c0,4.35-.71,8.53-2.02,12.43-3.86,11.54-12.93,20.71-24.42,24.68-3.36,1.16-6.91,1.9-10.6,2.1v9.34c4.3-.19,8.47-.95,12.42-2.2,15.78-5,28.08-17.83,32.34-33.91,1.05-3.97,1.61-8.14,1.61-12.43,0-26.8-21.8-48.59-48.6-48.59Z"/>
      <path class="cls-12" d="m1569.55,790.97c0,.97-.14,1.92-.38,2.81-1.23,4.45-5.31,7.72-10.15,7.72-5.81,0-10.52-4.71-10.52-10.52s4.71-10.52,10.52-10.52c3.39,0,6.4,1.61,8.33,4.1,1.38,1.78,2.19,4.01,2.19,6.43Z"/>
    </g>
    <g>
      <path class="cls-12" d="m1728.77,698.84c-26.8,0-48.6,21.79-48.6,48.59h9.33c0-21.65,17.62-39.27,39.28-39.27s39.27,17.61,39.27,39.27c0,4.35-.71,8.53-2.02,12.43-3.86,11.54-12.93,20.71-24.42,24.68-3.34,1.16-6.91,1.9-10.6,2.1v9.34c4.32-.19,8.47-.95,12.42-2.2,15.78-4.99,28.09-17.83,32.35-33.91,1.05-3.97,1.61-8.14,1.61-12.43,0-26.8-21.8-48.59-48.6-48.59Z"/>
      <path class="cls-12" d="m1743.79,790.97c0,.97-.14,1.92-.38,2.81-1.23,4.45-5.3,7.72-10.15,7.72-5.81,0-10.52-4.71-10.52-10.52s4.71-10.52,10.52-10.52c3.4,0,6.42,1.61,8.33,4.1,1.38,1.78,2.19,4.01,2.19,6.43Z"/>
    </g>
    <g>
      <path class="cls-12" d="m1903.03,698.84c-26.8,0-48.6,21.79-48.6,48.59h9.33c0-21.65,17.61-39.27,39.28-39.27s39.27,17.61,39.27,39.27c0,4.35-.71,8.53-2.02,12.43-3.86,11.54-12.93,20.71-24.42,24.68-3.34,1.16-6.91,1.9-10.6,2.1v9.34c4.31-.19,8.47-.95,12.42-2.2,15.76-4.99,28.08-17.83,32.34-33.91,1.05-3.97,1.61-8.14,1.61-12.43,0-26.8-21.8-48.59-48.59-48.59Z"/>
      <path class="cls-12" d="m1918.05,790.97c0,.97-.14,1.92-.38,2.81-1.23,4.45-5.31,7.72-10.15,7.72-5.81,0-10.52-4.71-10.52-10.52s4.71-10.52,10.52-10.52c3.39,0,6.4,1.61,8.33,4.1,1.38,1.78,2.19,4.01,2.19,6.43Z"/>
    </g>
    <g>
      <path class="cls-12" d="m2077.27,698.84c-26.8,0-48.59,21.79-48.59,48.59h9.33c0-21.65,17.61-39.27,39.27-39.27s39.28,17.61,39.28,39.27c0,4.35-.71,8.53-2.02,12.43-3.86,11.54-12.93,20.71-24.42,24.68-3.36,1.16-6.91,1.9-10.6,2.1v9.34c4.31-.19,8.47-.95,12.42-2.2,15.76-4.99,28.08-17.83,32.34-33.91,1.05-3.97,1.61-8.14,1.61-12.43,0-26.8-21.8-48.59-48.6-48.59Z"/>
      <path class="cls-12" d="m2092.31,790.97c0,.97-.14,1.92-.38,2.81-1.23,4.45-5.31,7.72-10.15,7.72-5.81,0-10.52-4.71-10.52-10.52s4.71-10.52,10.52-10.52c3.39,0,6.4,1.61,8.33,4.1,1.38,1.78,2.19,4.01,2.19,6.43Z"/>
    </g>
  </g>
  <path class="cls-7" d="m1653.83,1229.14h-56.67c-6.55,0-12.95-5.36-14.21-11.91l-10.93-56.67c-1.26-6.55,3.06-11.91,9.61-11.91h56.67c6.55,0,12.95,5.36,14.21,11.91l10.93,56.67c1.26,6.55-3.06,11.91-9.61,11.91Z"/>
  <path class="cls-7" d="m1796.84,1229.14h-56.67c-6.55,0-12.95-5.36-14.21-11.91l-10.93-56.67c-1.26-6.55,3.06-11.91,9.61-11.91h56.67c6.55,0,12.95,5.36,14.21,11.91l10.93,56.67c1.26,6.55-3.06,11.91-9.61,11.91Z"/>
  <path class="cls-12" d="m1939.84,1229.14h-56.67c-6.55,0-12.95-5.36-14.21-11.91l-10.93-56.67c-1.26-6.55,3.06-11.91,9.61-11.91h56.67c6.55,0,12.95,5.36,14.21,11.91l10.93,56.67c1.26,6.55-3.06,11.91-9.61,11.91Z"/>
  <path class="cls-7" d="m1224.83,1229.14h-56.67c-6.55,0-12.95-5.36-14.21-11.91l-10.93-56.67c-1.26-6.55,3.06-11.91,9.61-11.91h56.67c6.55,0,12.95,5.36,14.21,11.91l10.93,56.67c1.26,6.55-3.06,11.91-9.61,11.91Z"/>
  <path class="cls-5" d="m1162.72,1059.01h-24.35c-2.82,0-5.56-2.3-6.11-5.12l-4.7-24.35c-.54-2.82,1.32-5.12,4.13-5.12h24.35c2.82,0,5.56,2.3,6.11,5.12l4.7,24.35c.54,2.82-1.32,5.12-4.13,5.12Z"/>
  <path class="cls-7" d="m1367.83,1229.14h-56.67c-6.55,0-12.94-5.36-14.21-11.91l-10.93-56.67c-1.26-6.55,3.06-11.91,9.61-11.91h56.67c6.55,0,12.95,5.36,14.21,11.91l10.93,56.67c1.26,6.55-3.06,11.91-9.61,11.91Z"/>
  <path class="cls-7" d="m1510.83,1229.14h-56.67c-6.55,0-12.95-5.36-14.21-11.91l-10.93-56.67c-1.26-6.55,3.06-11.91,9.61-11.91h56.67c6.55,0,12.95,5.36,14.21,11.91l10.93,56.67c1.26,6.55-3.06,11.91-9.61,11.91Z"/>
  <path class="cls-12" d="m2082.84,1229.14h-56.67c-6.55,0-12.94-5.36-14.21-11.91l-10.93-56.67c-1.26-6.55,3.06-11.91,9.61-11.91h56.67c6.55,0,12.95,5.36,14.21,11.91l10.93,56.67c1.26,6.55-3.06,11.91-9.61,11.91Z"/>
  <path class="cls-7" d="m1630.09,1106.06h-56.67c-6.55,0-12.95-5.36-14.21-11.91l-10.93-56.67c-1.26-6.55,3.06-11.91,9.61-11.91h56.67c6.55,0,12.95,5.36,14.21,11.91l10.93,56.67c1.26,6.55-3.06,11.91-9.61,11.91Z"/>
  <path class="cls-7" d="m1773.09,1106.06h-56.67c-6.55,0-12.95-5.36-14.21-11.91l-10.93-56.67c-1.26-6.55,3.06-11.91,9.61-11.91h56.67c6.55,0,12.95,5.36,14.21,11.91l10.93,56.67c1.26,6.55-3.06,11.91-9.61,11.91Z"/>
  <path class="cls-12" d="m1916.1,1106.06h-56.67c-6.55,0-12.95-5.36-14.21-11.91l-10.93-56.67c-1.26-6.55,3.06-11.91,9.61-11.91h56.67c6.55,0,12.95,5.36,14.21,11.91l10.93,56.67c1.26,6.55-3.06,11.91-9.61,11.91Z"/>
  <path class="cls-12" d="m2059.1,1106.06h-56.67c-6.55,0-12.95-5.36-14.21-11.91l-10.93-56.67c-1.26-6.55,3.06-11.91,9.61-11.91h56.67c6.55,0,12.95,5.36,14.21,11.91l10.93,56.67c1.26,6.55-3.06,11.91-9.61,11.91Z"/>
  <path class="cls-7" d="m1679,1359.6h-56.67c-6.55,0-12.94-5.36-14.21-11.91l-10.93-56.67c-1.26-6.55,3.06-11.91,9.61-11.91h56.67c6.55,0,12.95,5.36,14.21,11.91l10.93,56.67c1.26,6.55-3.06,11.91-9.61,11.91Z"/>
  <path class="cls-7" d="m1822,1359.6h-56.67c-6.55,0-12.95-5.36-14.21-11.91l-10.93-56.67c-1.26-6.55,3.06-11.91,9.61-11.91h56.67c6.55,0,12.95,5.36,14.21,11.91l10.93,56.67c1.26,6.55-3.06,11.91-9.61,11.91Z"/>
  <path class="cls-12" d="m1965,1359.6h-56.67c-6.55,0-12.95-5.36-14.21-11.91l-10.93-56.67c-1.26-6.55,3.06-11.91,9.61-11.91h56.67c6.55,0,12.95,5.36,14.21,11.91l10.93,56.67c1.26,6.55-3.06,11.91-9.61,11.91Z"/>
  <path class="cls-7" d="m1249.99,1359.6h-56.67c-6.55,0-12.95-5.36-14.21-11.91l-10.93-56.67c-1.26-6.55,3.06-11.91,9.61-11.91h56.67c6.55,0,12.95,5.36,14.21,11.91l10.93,56.67c1.26,6.55-3.06,11.91-9.61,11.91Z"/>
  <path class="cls-7" d="m1393,1359.6h-56.67c-6.55,0-12.95-5.36-14.21-11.91l-10.93-56.67c-1.26-6.55,3.06-11.91,9.61-11.91h56.67c6.55,0,12.95,5.36,14.21,11.91l10.93,56.67c1.26,6.55-3.06,11.91-9.61,11.91Z"/>
  <path class="cls-7" d="m1536,1359.6h-56.67c-6.55,0-12.95-5.36-14.21-11.91l-10.93-56.67c-1.26-6.55,3.06-11.91,9.61-11.91h56.67c6.55,0,12.95,5.36,14.21,11.91l10.93,56.67c1.26,6.55-3.06,11.91-9.61,11.91Z"/>
  <path class="cls-12" d="m2108,1359.6h-56.67c-6.55,0-12.95-5.36-14.21-11.91l-10.93-56.67c-1.26-6.55,3.06-11.91,9.61-11.91h56.67c6.55,0,12.94,5.36,14.21,11.91l10.93,56.67c1.26,6.55-3.06,11.91-9.61,11.91Z"/>
  <path class="cls-7" d="m1704.16,1490.05h-56.67c-6.55,0-12.95-5.36-14.21-11.91l-10.93-56.67c-1.26-6.55,3.06-11.91,9.61-11.91h56.67c6.55,0,12.95,5.36,14.21,11.91l10.93,56.67c1.26,6.55-3.06,11.91-9.61,11.91Z"/>
  <path class="cls-7" d="m1847.16,1490.05h-56.67c-6.55,0-12.95-5.36-14.21-11.91l-10.93-56.67c-1.26-6.55,3.06-11.91,9.61-11.91h56.67c6.55,0,12.95,5.36,14.21,11.91l10.93,56.67c1.26,6.55-3.06,11.91-9.61,11.91Z"/>
  <path class="cls-12" d="m1990.17,1490.05h-56.67c-6.55,0-12.95-5.36-14.21-11.91l-10.93-56.67c-1.26-6.55,3.06-11.91,9.61-11.91h56.67c6.55,0,12.95,5.36,14.21,11.91l10.93,56.67c1.26,6.55-3.06,11.91-9.61,11.91Z"/>
  <path class="cls-7" d="m1275.16,1490.05h-56.67c-6.55,0-12.95-5.36-14.21-11.91l-10.93-56.67c-1.26-6.55,3.06-11.91,9.61-11.91h56.67c6.55,0,12.94,5.36,14.21,11.91l10.93,56.67c1.26,6.55-3.06,11.91-9.61,11.91Z"/>
  <path class="cls-5" d="m1418.16,1490.05h-56.67c-6.55,0-12.94-5.36-14.21-11.91l-10.93-56.67c-1.26-6.55,3.06-11.91,9.61-11.91h56.67c6.55,0,12.95,5.36,14.21,11.91l10.93,56.67c1.26,6.55-3.06,11.91-9.61,11.91Z"/>
  <path class="cls-7" d="m1561.16,1490.05h-56.67c-6.55,0-12.95-5.36-14.21-11.91l-10.93-56.67c-1.26-6.55,3.06-11.91,9.61-11.91h56.67c6.55,0,12.95,5.36,14.21,11.91l10.93,56.67c1.26,6.55-3.06,11.91-9.61,11.91Z"/>
  <path class="cls-12" d="m2133.17,1490.05h-56.67c-6.55,0-12.95-5.36-14.21-11.91l-10.93-56.67c-1.26-6.55,3.06-11.91,9.61-11.91h56.67c6.55,0,12.95,5.36,14.21,11.91l10.93,56.67c1.26,6.55-3.06,11.91-9.61,11.91Z"/>
  <path class="cls-7" d="m1727.91,1613.14h-56.67c-6.55,0-12.95-5.36-14.21-11.91l-10.93-56.67c-1.26-6.55,3.06-11.91,9.61-11.91h56.67c6.55,0,12.95,5.36,14.21,11.91l10.93,56.67c1.26,6.55-3.06,11.91-9.61,11.91Z"/>
  <path class="cls-7" d="m1870.91,1613.14h-56.67c-6.55,0-12.95-5.36-14.21-11.91l-10.93-56.67c-1.26-6.55,3.06-11.91,9.61-11.91h56.67c6.55,0,12.95,5.36,14.21,11.91l10.93,56.67c1.26,6.55-3.06,11.91-9.61,11.91Z"/>
  <path class="cls-12" d="m2013.91,1613.14h-56.67c-6.55,0-12.95-5.36-14.21-11.91l-10.93-56.67c-1.26-6.55,3.06-11.91,9.61-11.91h56.67c6.55,0,12.95,5.36,14.21,11.91l10.93,56.67c1.26,6.55-3.06,11.91-9.61,11.91Z"/>
  <path class="cls-7" d="m1298.9,1613.14h-56.67c-6.55,0-12.95-5.36-14.21-11.91l-10.93-56.67c-1.26-6.55,3.06-11.91,9.61-11.91h56.67c6.55,0,12.95,5.36,14.21,11.91l10.93,56.67c1.26,6.55-3.06,11.91-9.61,11.91Z"/>
  <path class="cls-7" d="m1441.9,1613.14h-56.67c-6.55,0-12.95-5.36-14.21-11.91l-10.93-56.67c-1.26-6.55,3.06-11.91,9.61-11.91h56.67c6.55,0,12.95,5.36,14.21,11.91l10.93,56.67c1.26,6.55-3.06,11.91-9.61,11.91Z"/>
  <path class="cls-7" d="m1584.9,1613.14h-56.67c-6.55,0-12.95-5.36-14.21-11.91l-10.93-56.67c-1.26-6.55,3.06-11.91,9.61-11.91h56.67c6.55,0,12.95,5.36,14.21,11.91l10.93,56.67c1.26,6.55-3.06,11.91-9.61,11.91Z"/>
  <path class="cls-7" d="m1334.48,1036.64h-150.13c-2.21,0-4.02-1.81-4.02-4.02h0c0-2.21,1.81-4.02,4.02-4.02h150.13c2.21,0,4.02,1.81,4.02,4.02h0c0,2.21-1.81,4.02-4.02,4.02Z"/>
  <path class="cls-7" d="m1339.05,1054.83h-150.13c-2.21,0-4.02-1.81-4.02-4.02h0c0-2.21,1.81-4.02,4.02-4.02h150.13c2.21,0,4.02,1.81,4.02,4.02h0c0,2.21-1.81,4.02-4.02,4.02Z"/>
  <g>
    <path class="cls-9" d="m1173.46,901.25h-51.52c-4.22,0-7.67-3.45-7.67-7.67h0c0-4.22,3.45-7.67,7.67-7.67h51.52c4.22,0,7.67,3.45,7.67,7.67h0c0,4.22-3.45,7.67-7.67,7.67Z"/>
    <path class="cls-9" d="m1314.83,901.25h-51.52c-4.22,0-7.67-3.45-7.67-7.67h0c0-4.22,3.45-7.67,7.67-7.67h51.52c4.22,0,7.67,3.45,7.67,7.67h0c0,4.22-3.45,7.67-7.67,7.67Z"/>
    <path class="cls-9" d="m1456.2,901.25h-51.52c-4.22,0-7.67-3.45-7.67-7.67h0c0-4.22,3.45-7.67,7.67-7.67h51.52c4.22,0,7.67,3.45,7.67,7.67h0c0,4.22-3.45,7.67-7.67,7.67Z"/>
    <path class="cls-9" d="m1597.56,901.25h-51.52c-4.22,0-7.67-3.45-7.67-7.67h0c0-4.22,3.45-7.67,7.67-7.67h51.52c4.22,0,7.67,3.45,7.67,7.67h0c0,4.22-3.45,7.67-7.67,7.67Z"/>
    <path class="cls-9" d="m1738.93,901.25h-51.52c-4.22,0-7.67-3.45-7.67-7.67h0c0-4.22,3.45-7.67,7.67-7.67h51.52c4.22,0,7.67,3.45,7.67,7.67h0c0,4.22-3.45,7.67-7.67,7.67Z"/>
    <path class="cls-9" d="m1880.3,901.25h-51.52c-4.22,0-7.67-3.45-7.67-7.67h0c0-4.22,3.45-7.67,7.67-7.67h51.52c4.22,0,7.67,3.45,7.67,7.67h0c0,4.22-3.45,7.67-7.67,7.67Z"/>
    <path class="cls-9" d="m2021.67,901.25h-51.52c-4.22,0-7.67-3.45-7.67-7.67h0c0-4.22,3.45-7.67,7.67-7.67h51.52c4.22,0,7.67,3.45,7.67,7.67h0c0,4.22-3.45,7.67-7.67,7.67Z"/>
  </g>
  <path class="cls-3" d="m2556.63,1706.97h-90.8c-4.87-4.13,3.37-13.5,11.97-14.13,3.74-.28,8.46.5,13.86,1.64,1.25-16.6,8.38-91.2,35.28-88.2,30.24,3.36,0,32.85-8.55,50.32-6.33,12.94-13.01,31.49-16.06,40.24,2.45.53,5,1.05,7.59,1.53,4.01-12.31,18.92-53.7,37.88-51.29,22.27,2.82,13.32,19.42-2.46,29.27-11.58,7.24-25.79,17.54-32.55,22.51,5.72.93,11.7,1.56,17.76,1.42,15.55-.37,23.14,4.21,26.09,6.68Z"/>
  <path class="cls-3" d="m483.93,1702.65c-4.81-7.56-19.29-27.18-38.58-24.58-21.02,2.83,23.21,16.68,36.75,24.64-3.01.04-5.59-.2-7.49-.88-9.05-3.23-24.55,2.96-29.51,5.13h86.18c-.6-2.06-2.15-5.43-6.16-7.88-1.42-.87-4.26-.99-7.93-.71,5.12-6.04,8.68-25.34-5.58-20.37-10.42,3.63-10.39,15.42-9.37,22.39-2.22.35-4.46.7-6.69,1.02-4.29-21.87-19.47-85.95-50.22-87.66-31.18-1.73,26.44,66.46,45.63,88.27-2.46.3-4.82.52-7.02.62Z"/>
  <path class="cls-2" d="m144.97,1706.06h2697.48c1.69,0,3.06,1.37,3.06,3.06v1.05c0,1.69-1.37,3.06-3.06,3.06H144.97c-1.69,0-3.06-1.37-3.06-3.06v-1.04c0-1.69,1.37-3.06,3.06-3.06Z"/>
  <path class="cls-1" d="m2423.6,1011.36c0,54.99-68.86,98.43-84.97,148.06-16.7,51.43,12.9,126.94-18.26,169.75-31.47,43.24-112.63,38.27-155.87,69.73-42.81,31.16-62.99,110.06-114.42,126.76-49.62,16.11-112.1-35.33-167.1-35.33s-117.48,51.44-167.1,35.33c-51.43-16.7-71.61-95.6-114.42-126.76-43.24-31.47-124.41-26.5-155.87-69.73-31.16-42.81-1.56-118.32-18.26-169.75-16.11-49.62-84.97-93.06-84.97-148.06s68.86-98.43,84.97-148.06c16.7-51.43-12.9-126.94,18.26-169.75,31.47-43.24,112.63-38.27,155.87-69.73,42.81-31.16,62.99-110.06,114.42-126.76,49.62-16.11,112.1,35.33,167.1,35.33s117.48-51.44,167.1-35.33c51.43,16.7,71.61,95.6,114.42,126.76,43.24,31.47,124.41,26.5,155.87,69.73,31.16,42.81,1.56,118.32,18.26,169.75,16.11,49.62,84.97,93.06,84.97,148.06Z"/>
  <polygon class="cls-9" points="1802.2 1265.7 1609.09 1090.21 1679.23 1013.02 1790.91 1114.51 2053.4 792.67 2134.23 858.59 1802.2 1265.7"/>
</svg>