<?xml version="1.0" encoding="UTF-8"?>
<svg id="_Слой_1" data-name="Слой 1" xmlns="http://www.w3.org/2000/svg" viewBox="0 0 3200 2000">
  <defs>
    <style>
      .cls-1 {
        fill: #2e3552;
      }

      .cls-1, .cls-2, .cls-3, .cls-4, .cls-5, .cls-6, .cls-7, .cls-8, .cls-9, .cls-10, .cls-11, .cls-12, .cls-13, .cls-14, .cls-15, .cls-16, .cls-17, .cls-18, .cls-19, .cls-20, .cls-21, .cls-22, .cls-23, .cls-24, .cls-25, .cls-26, .cls-27 {
        stroke-width: 0px;
      }

      .cls-2 {
        fill: #bad4f4;
      }

      .cls-3 {
        fill: #7c1b40;
      }

      .cls-4 {
        fill: #c0d8fb;
      }

      .cls-5 {
        fill: #8c013c;
      }

      .cls-6 {
        fill: #8cb4f4;
      }

      .cls-7 {
        fill: #dabc21;
      }

      .cls-8 {
        fill: #163d19;
      }

      .cls-9 {
        fill: #9fc1f4;
      }

      .cls-10 {
        fill: #ebf3ff;
      }

      .cls-11 {
        fill: #f9d525;
      }

      .cls-12 {
        fill: #dfebfd;
      }

      .cls-13 {
        fill: #fff;
      }

      .cls-14 {
        fill: #ebf3fa;
      }

      .cls-15 {
        fill: #1b3051;
      }

      .cls-16 {
        fill: #b7d3f3;
      }

      .cls-17 {
        fill: #004500;
      }

      .cls-18 {
        fill: #d4e4f8;
      }

      .cls-19 {
        fill: #0f2549;
      }

      .cls-20 {
        fill: #9abfe2;
      }

      .cls-21 {
        fill: #233862;
      }

      .cls-22 {
        fill: #c8dbf4;
      }

      .cls-23 {
        fill: #ffb27d;
      }

      .cls-24 {
        fill: #2b478b;
      }

      .cls-25 {
        fill: #73a2e5;
      }

      .cls-26 {
        fill: #ed975d;
      }

      .cls-27 {
        fill: #182d4f;
      }
    </style>
  </defs>
  <path class="cls-14" d="m417.73,1799.27s-336.33-405.14-171.96-822.22c107.14-271.87,509.04-420.84,735.85-271.87,96.6,63.45,406.53,2.14,572.01-260.54,321.57-510.45,1443.86-200.45,1239.54,583.27-98.88,379.26,300.92,393.05,97.21,772.16l-2472.65-.8Z"/>
  <g>
    <g>
      <path class="cls-22" d="m666.68,1132.49s-33.92-39.57-2.09-64.71c0,0,23.25-14.07,42.21-12.93,0,0-26.86,45.04-18.17,49.52,8.69,4.48,26.31-52.35,26.31-52.35,0,0,52.91-5.13,69.93,3.05,0,0-45.23,37.01-35.7,39.21,9.53,2.2,58.38-34.12,58.38-34.12,0,0,49.24,8.38,46.61,38.42-2.63,30.04-19.59,39.31-27.05,38.52-7.46-.8-51.08-17.45-52.03-11.34-.95,6.11,25.31,26.08,43.7,27.01,0,0-34.72,38.29-57.79,27.24-23.07-11.05-25.04-28.56-39.42-35.13-14.38-6.57-26.66-6.55-20.72.15,5.94,6.7,31.97,13.21,40.19,27.76,8.22,14.55,15.6,24.36-8.27,20.77s-62.67-21.06-64.38-41.06l-1.7-20Z"/>
      <g>
        <path class="cls-22" d="m829.96,1099.4s-133.74-5.15-163.28,33.09c0,0-6.53,19.56-26.63,37.38l-3.13,8.54s23.18-24.44,31.47-25.91c0,0-12.97-47.39,161.57-53.1Z"/>
        <path class="cls-22" d="m640.05,1169.87s-28.71,21.23-30.7,59.16l5.21.47s9.17-39.22,25.74-54.56c16.57-15.34-.25-5.07-.25-5.07Z"/>
      </g>
    </g>
    <g>
      <path class="cls-22" d="m548.09,1082.72s53.96-30.22,28.78-71.22c0,0-20.14-25.18-41.73-31.65,0,0,11.51,61.15,0,62.59-11.51,1.44-7.91-69.07-7.91-69.07,0,0-56.84-27.34-79.14-25.18,0,0,35.25,59.71,23.74,58.27-11.51-1.44-51.08-61.87-51.08-61.87,0,0-58.27-10.79-67.63,23.74-9.35,34.53,5.76,51.8,14.39,53.96,8.63,2.16,64.03,1.44,62.59,8.63-1.44,7.19-38.85,18.71-59.71,12.23,0,0,23.02,56.83,53.24,53.96,30.22-2.88,39.57-21.58,58.27-23.02,18.71-1.44,32.37,3.6,23.02,8.63-9.35,5.04-41.01,1.65-56.12,14.5-15.11,12.84-27.34,20.76.72,26.51,28.06,5.76,78.42,2.16,88.49-19.42l10.07-21.58Z"/>
      <g>
        <path class="cls-22" d="m379.74,979.13s151.08,48.92,168.35,103.6c0,0-.72,24.46,14.39,52.52v10.79s-15.83-36.69-24.46-41.73c0,0,33.81-47.48-158.28-125.18Z"/>
        <path class="cls-22" d="m562.47,1135.24s23.3,35.38,10.02,78.45l-5.99-1.61s5.82-47.44-6.37-71.3c-12.19-23.86,2.35-5.54,2.35-5.54Z"/>
      </g>
    </g>
    <g>
      <path class="cls-18" d="m633.93,1041.05s-71.13-39.83-37.93-93.89c0,0,26.55-33.19,55-41.73,0,0-15.17,80.61,0,82.51,15.17,1.9,10.43-91.04,10.43-91.04,0,0,74.92-36.04,104.32-33.19,0,0-46.47,78.71-31.3,76.82,15.17-1.9,67.33-81.56,67.33-81.56,0,0,76.82-14.23,89.14,31.3,12.33,45.52-7.59,68.28-18.97,71.13-11.38,2.84-84.4,1.9-82.51,11.38,1.9,9.48,51.21,24.66,78.71,16.12,0,0-30.35,74.92-70.18,71.13-39.83-3.79-52.16-28.45-76.82-30.35-24.66-1.9-42.68,4.74-30.35,11.38,12.33,6.64,54.06,2.18,73.97,19.11,19.91,16.93,36.04,27.36-.95,34.95-36.99,7.59-103.37,2.84-116.65-25.61l-13.28-28.45Z"/>
      <g>
        <path class="cls-18" d="m855.84,904.49s-199.15,64.49-221.91,136.56c0,0,.95,32.24-18.97,69.23v14.23s20.86-48.37,32.24-55c0,0-44.57-62.59,208.64-165.01Z"/>
        <path class="cls-18" d="m614.96,1110.28s-30.71,46.64-13.2,103.41l7.9-2.12s-7.67-62.53,8.4-93.98c16.07-31.45-3.1-7.31-3.1-7.31Z"/>
      </g>
    </g>
    <path class="cls-18" d="m631.53,1336.81c76.95,0,139.32-62.38,139.32-139.33h-278.65c0,76.95,62.38,139.33,139.32,139.33Z"/>
    <path class="cls-18" d="m507.47,1326.71h248.12c9.49,0,17.19,7.7,17.19,17.19h-282.5c0-9.49,7.7-17.19,17.19-17.19Z"/>
    <rect class="cls-9" x="487.63" y="1197.48" width="286.4" height="4.27"/>
  </g>
  <g>
    <path class="cls-6" d="m1350.45,1796.37h.69c5.63-.12,9.98-4.72,9.45-10.01l-37.56-375.07-32.77,2.92,53.93,377.09c.42,2.95,3.12,5.13,6.26,5.07Z"/>
    <path class="cls-6" d="m988.83,1796.37h-.69c-5.63-.12-9.98-4.72-9.45-10.01l37.56-375.07,32.77,2.92-53.93,377.09c-.42,2.95-3.12,5.13-6.26,5.07Z"/>
    <path class="cls-6" d="m1615.4,1796.37h.69c5.63-.12,9.98-4.72,9.45-10.01l-37.56-375.07-32.77,2.92,53.93,377.09c.42,2.95,3.12,5.13,6.26,5.07Z"/>
    <path class="cls-6" d="m1000.01,1356.74l-66.66-329.2c-8.56-44.57,28.38-85.33,76.33-84.23l128.57,2.94c44.35,1.01,82.91,30.7,95.24,73.31l97.53,337.19h-331.01Z"/>
    <path class="cls-6" d="m1040.34,1356.74l-66.66-329.2c-8.56-44.57,28.38-85.33,76.33-84.23l128.57,2.94c44.35,1.01,82.91,30.7,95.24,73.31l97.53,337.19h-331.01Z"/>
    <path class="cls-6" d="m1018.59,1356.74h508.66c10.26,0,18.58,8.33,18.58,18.58v41.46h-527.24c-10.26,0-18.58-8.33-18.58-18.58v-22.88c0-10.25,8.33-18.58,18.58-18.58Z" transform="translate(2545.84 2773.51) rotate(180)"/>
    <rect class="cls-6" x="1242.32" y="1356.74" width="354.19" height="60.04" rx="14.97" ry="14.97" transform="translate(2838.84 2773.51) rotate(180)"/>
  </g>
  <g>
    <path class="cls-20" d="m848.24,1352.45v11.23c0,3.93-1.27,7.14-2.83,7.14h-409.86c-1.55,0-2.83-3.21-2.83-7.14v-11.23c0-3.93,1.27-7.14,2.83-7.14h409.86c1.55,0,2.83,3.22,2.83,7.14Z"/>
    <path class="cls-2" d="m848.24,1352.45v11.23c0,3.93-1.17,7.14-2.59,7.14h-325.38c-1.43,0-2.59-3.21-2.59-7.14v-11.23c0-3.93,1.17-7.14,2.59-7.14h325.38c1.43,0,2.59,3.22,2.59,7.14Z"/>
    <rect class="cls-22" x="453.53" y="1370.83" width="290.97" height="424.11"/>
    <rect class="cls-12" x="535.07" y="1370.83" width="290.97" height="424.11"/>
    <g>
      <path class="cls-16" d="m810.41,1771.52h-259.7v-388.71h259.7v388.71Zm-256.9-2.8h254.09v-383.1h-254.09v383.1Z"/>
      <rect class="cls-16" x="552.11" y="1511.4" width="256.9" height="2.8"/>
      <rect class="cls-16" x="552.11" y="1642.49" width="256.9" height="2.8"/>
      <path class="cls-16" d="m706.89,1407.88h-47.67c-2.31,0-4.21-1.89-4.21-4.21h0c0-2.31,1.89-4.21,4.21-4.21h47.67c2.31,0,4.21,1.89,4.21,4.21h0c0,2.31-1.89,4.21-4.21,4.21Z"/>
      <path class="cls-16" d="m706.89,1536.07h-47.67c-2.31,0-4.21-1.89-4.21-4.21h0c0-2.31,1.89-4.21,4.21-4.21h47.67c2.31,0,4.21,1.89,4.21,4.21h0c0,2.31-1.89,4.21-4.21,4.21Z"/>
      <path class="cls-16" d="m706.89,1669.71h-47.67c-2.31,0-4.21-1.89-4.21-4.21h0c0-2.31,1.89-4.21,4.21-4.21h47.67c2.31,0,4.21,1.89,4.21,4.21h0c0,2.31-1.89,4.21-4.21,4.21Z"/>
    </g>
  </g>
  <g>
    <path class="cls-4" d="m1806.08,399.48h184.43c8.5,0,15.39,6.9,15.39,15.39v178.01c0,8.5-6.9,15.39-15.39,15.39h-184.43c-8.5,0-15.39-6.9-15.39-15.39v-178.01c0-8.5,6.9-15.39,15.39-15.39Z"/>
    <path class="cls-12" d="m1814.07,408.52h168.45c7.76,0,14.06,6.3,14.06,14.06v162.59c0,7.76-6.3,14.06-14.06,14.06h-168.45c-7.76,0-14.06-6.3-14.06-14.06v-162.59c0-7.76,6.3-14.06,14.06-14.06Z"/>
    <g>
      <g>
        <circle class="cls-16" cx="1898.29" cy="427.58" r="4.46"/>
        <path class="cls-16" d="m1929.81,433.88c1.2-2.15,3.91-2.93,6.06-1.73,2.15,1.2,2.93,3.91,1.73,6.06-1.2,2.15-3.91,2.93-6.06,1.73-2.15-1.2-2.93-3.91-1.73-6.06Z"/>
        <path class="cls-16" d="m1960.63,458.37c2.07-1.33,4.83-.74,6.16,1.33,1.33,2.07.74,4.83-1.33,6.16-2.07,1.33-4.83.74-6.16-1.33-1.34-2.07-.74-4.83,1.33-6.16Z"/>
        <path class="cls-16" d="m1975.9,496.27c2.46,0,4.46,2,4.46,4.46s-2,4.46-4.46,4.46-4.46-2-4.46-4.46,2-4.46,4.46-4.46Z"/>
        <path class="cls-16" d="m1968.1,540.25c1.74,1.74,1.74,4.56,0,6.3-1.74,1.74-4.56,1.74-6.3,0-1.74-1.74-1.74-4.56,0-6.3,1.74-1.74,4.56-1.74,6.3,0Z"/>
        <path class="cls-16" d="m1940.11,568.32c1.74,1.74,1.74,4.56,0,6.3-1.74,1.74-4.56,1.74-6.3,0-1.74-1.74-1.74-4.56,0-6.3,1.74-1.74,4.56-1.74,6.3,0Z"/>
        <path class="cls-16" d="m1893.84,582.78c0-2.46,2-4.46,4.46-4.46s4.46,2,4.46,4.46-2,4.46-4.46,4.46-4.46-2-4.46-4.46Z"/>
      </g>
      <g>
        <path class="cls-16" d="m1866.64,433.88c-1.2-2.15-3.91-2.93-6.06-1.73-2.15,1.2-2.93,3.91-1.73,6.06,1.2,2.15,3.91,2.93,6.06,1.73,2.15-1.2,2.93-3.91,1.73-6.06Z"/>
        <path class="cls-16" d="m1835.82,458.37c-2.07-1.33-4.83-.74-6.16,1.33-1.34,2.07-.74,4.83,1.33,6.16,2.07,1.33,4.83.74,6.16-1.33,1.33-2.07.74-4.83-1.33-6.16Z"/>
        <path class="cls-16" d="m1820.55,496.27c-2.46,0-4.46,2-4.46,4.46s2,4.46,4.46,4.46,4.46-2,4.46-4.46-2-4.46-4.46-4.46Z"/>
        <path class="cls-16" d="m1828.35,540.25c-1.74,1.74-1.74,4.56,0,6.3,1.74,1.74,4.56,1.74,6.3,0,1.74-1.74,1.74-4.56,0-6.3-1.74-1.74-4.56-1.74-6.3,0Z"/>
        <path class="cls-16" d="m1856.34,568.32c-1.74,1.74-1.74,4.56,0,6.3,1.74,1.74,4.56,1.74,6.3,0,1.74-1.74,1.74-4.56,0-6.3-1.74-1.74-4.56-1.74-6.3,0Z"/>
      </g>
    </g>
    <g>
      <path class="cls-16" d="m1897.09,500.72c0-2.46,2-4.46,4.46-4.46s4.46,2,4.46,4.46-2,4.46-4.46,4.46-4.46-2-4.46-4.46Z"/>
      <rect class="cls-16" x="1900.94" y="445.03" width="1.22" height="55.7"/>
      <rect class="cls-16" x="1896.98" y="487.23" width="37.54" height="3.65" transform="translate(106.86 1287.29) rotate(-38.13)"/>
    </g>
  </g>
  <path class="cls-21" d="m1443.13,1287.84c-27.52,47.89-62.13,66.38-62.13,66.38h-143.99s227.11-102.92,206.12-66.38Z"/>
  <path class="cls-23" d="m1620.72,1763.66c-1.56,15.11,19.46,19.01,43.83,20.49,24.37,1.48,16.95,6.39,50.3,12.8,33.35,6.41,46.84-2.59,49.31-7.08,2.2-3.98-13.27-10.41-29.75-17.67-2.08-.91-4.15-1.84-6.23-2.77-18.55-8.39-28.82-25.22-43.18-40.87-13.6-14.82-26.17-61.95-26.17-61.95l-45.3-10.18s12.3,42.43,16.53,60.53c2.49,10.65-1.48,22.48-4.99,31.48-1.89,4.9-3.8,9.91-4.34,15.23Z"/>
  <path class="cls-19" d="m1664.55,1784.15c24.37,1.48,16.95,6.39,50.3,12.8,33.35,6.41,46.84-2.59,49.31-7.08,2.2-3.98-13.27-10.41-29.75-17.67l-.26.28s-23.58,7.73-50.62.06c-22.04-6.24-43.27-19.68-58.46-24.11-1.89,4.9-3.8,9.91-4.34,15.23-1.56,15.11,19.46,19.01,43.83,20.49Z"/>
  <path class="cls-8" d="m1552.09,1238.78c-24.38-17.12-185.64-47.63-267.93-56.46l-90.96-78.96s-77.42,114.67-78.04,202.4c-.29,40.91,18.55,44.97,18.56,44.98,0,0,291.59,2.16,304.37,3.48,20.92,2.16,48.52,54.28,55.41,101.75,6.9,47.47,128.49,240.54,128.49,240.54,0,0,25.36,8.12,37.08,7.44,12.61-.74,18.45-4.96,18.45-4.96,0,0-70.46-421.6-125.44-460.2Z"/>
  <path class="cls-23" d="m1545.3,1763.66c-1.56,15.11,19.46,19.01,43.83,20.49,24.37,1.48,16.95,6.39,50.3,12.8,33.35,6.41,46.84-2.59,49.31-7.08,2.2-3.98-13.27-10.41-29.75-17.67-2.07-.91-4.15-1.84-6.23-2.77-18.55-8.39-28.82-25.22-43.18-40.87-13.6-14.82-26.17-61.95-26.17-61.95l-45.31-10.18s12.3,42.43,16.53,60.53c2.49,10.65-1.48,22.48-4.99,31.48-1.89,4.9-3.8,9.91-4.34,15.23Z"/>
  <path class="cls-21" d="m1589.13,1784.15c24.37,1.48,16.95,6.39,50.3,12.8,33.35,6.41,46.84-2.59,49.31-7.08,2.2-3.98-13.27-10.41-29.75-17.67l-.26.28s-23.58,7.73-50.62.06c-22.04-6.24-43.27-19.68-58.46-24.11-1.89,4.9-3.8,9.91-4.34,15.23-1.56,15.11,19.46,19.01,43.83,20.49Z"/>
  <path class="cls-17" d="m1476,1238.78c-21.18-14.87-84.88-26.4-155.19-34.96-19.44-2.37-35.4-16.5-40.15-35.5h0l-163.55-64.96s-77.42,114.67-78.04,202.4c-.29,40.91,18.55,44.97,18.56,44.98,0,0,291.59,2.16,304.37,3.48,20.92,2.16,48.52,54.28,55.41,101.75,6.9,47.47,128.49,240.54,128.49,240.54,0,0,25.36,8.12,37.08,7.44,12.61-.74,18.45-4.96,18.45-4.96,0,0-70.46-421.6-125.44-460.2Z"/>
  <path class="cls-21" d="m1257.15,626.92c-22.47-11.8-56.67-13.4-62.23-14.14-66.48-8.93-106.49,87.67-108.85,116.94-4.34,53.95-32.88,62.18-73.05,95.97-80.55,67.75-56.93,146.48-12.88,175.73,26.43,17.55,73.01,0,73.01,0,.66.46,127.4-70.85,189.87-105.25,93.66-13.31,51.4-239.17-5.87-269.25Z"/>
  <path class="cls-23" d="m1243.28,862.93c.29.15-29.54,13.72-51.08,6.6-20.26-6.67-38.1-37.17-37.82-37.22,8.79-1.27,17.73-9.95,20.23-61.35l3.89.98,65.47,16.55s-2.59,20.74-3.66,40.35c-.9,16.46-.72,32.13,2.96,34.09Z"/>
  <path class="cls-26" d="m1243.98,788.49s0,4.27-2.45,23.56c-37.03-9.34-53.35-21.62-64.87-35.67l67.31,12.11Z"/>
  <path class="cls-23" d="m1257.95,791.1s-86.57,14.1-94.52-39.95c-7.95-54.05-24.47-88.63,30.46-99.91,54.94-11.28,68.74,7.76,75.78,25.15,7.04,17.4,10.6,109.66-11.72,114.72Z"/>
  <path class="cls-21" d="m1258.03,648.97s-39.32,62.06-74.41,76.76c-35.1,14.7-52.34,7.24-52.34,7.24,0,0,15.97-24.21,20.13-56.72,1.23-9.58,7.47-17.8,16.44-21.39,25.19-10.09,73.9-25.99,90.19-5.89Z"/>
  <path class="cls-21" d="m1223.5,654.97s23.04,11.81,32.53,22.89c9.16,10.68,19.74,39.68,18.98,52.7,0,0,11.37-62.4-12.31-83.85-25.11-22.74-39.2,8.26-39.2,8.26Z"/>
  <path class="cls-13" d="m1312.54,994.97c-2.63,175.98-.72,139.2-19.97,155.9-4.64,4.02-17.68,6.42-34.84,7.55-53.96,3.58-148.81-5.31-152.42-15.28-12.45-34.5-3.66-45.22-14.04-98.05-1.08-5.62-2.42-11.7-3.99-18.32-8.66-36.28-17.08-48.63,13.63-106.92,27.86-52.8,60.61-95.69,63.22-94.15,73.49,43.63,76.01,7.06,76.01,7.06,0,0,73.7,76.37,72.41,162.21Z"/>
  <path class="cls-13" d="m1240.13,832.77s75.22,12.75,84.1,45.31c8.88,32.56,61.14,223.97,61.14,223.97,0,0-38.44,6.91-56.2-10.85-17.76-17.76-61.8-164.77-61.8-164.77l-27.23-93.65Z"/>
  <path class="cls-10" d="m1257.73,1158.42c-53.96,3.58-148.81-5.31-152.42-15.28-12.45-34.5-3.66-45.22-14.04-98.05l26.03-73.29s-4.3,81.61,19.76,103.08c24.04,21.46,98.54,41.44,110.24,59.37,5.64,8.61,9.35,17.24,10.44,24.17Z"/>
  <path class="cls-23" d="m1195.91,1124.1s53.24-11.85,61.82-7.13c8.59,4.72,29.58,21.93,32.21,27.92,2.63,5.99-19.12-4.54-26.2-6.44-4.58-1.23-16.64,2.96-22.61,4.95-25.12,8.38-40.52,4.07-40.52,4.07l-4.7-23.36Z"/>
  <path class="cls-13" d="m1164.12,825.71s-75.34,4.4-100.09,38.92c-34.83,48.58-103.93,255.63-64.33,283.24,44.6,31.1,202.97,8.14,202.97,8.14,0,0,5.27-24.63-2.06-36.55-7.33-11.92-126.5-31.17-132-36.67-5.5-5.5,68.75-107.25,68.75-123.75s26.76-133.33,26.76-133.33Z"/>
  <path class="cls-23" d="m1260.31,1131.79s11.15,14.39,14.81,16.11c3.66,1.72,6.02,1.29,6.02,1.29l-7.52-13.53-13.31-3.87Z"/>
  <path class="cls-23" d="m1257.73,1116.97l32.43,15.75s-1.38,2.26-5.37,2.08c-3.99-.18-14.07-3.87-14.07-3.87l-12.99-13.96Z"/>
  <path class="cls-3" d="m1377.2,1154.3h-150.62c0-6.63,5.38-12.01,12.01-12.01h138.61v12.01Z"/>
  <polygon class="cls-3" points="1376.76 990.27 1609.63 990.27 1553.77 1154.3 1319.4 1154.3 1376.76 990.27"/>
  <polygon class="cls-5" points="1613.06 990.26 1557.2 1154.3 1322.83 1154.3 1380.2 990.26 1613.06 990.26"/>
  <path class="cls-13" d="m1487.51,1070.77c-1.45,6.27-7.7,11.35-13.97,11.35s-10.18-5.08-8.73-11.35c1.45-6.27,7.7-11.35,13.97-11.35s10.17,5.08,8.73,11.35Z"/>
  <g>
    <path class="cls-27" d="m1174.52,1154.3h1020.49c4.29,0,7.77,3.48,7.77,7.77v21.36c0,4.29-3.48,7.77-7.77,7.77h-1020.49c-4.29,0-7.77-3.48-7.77-7.77v-21.36c0-4.29,3.48-7.77,7.77-7.77Z"/>
    <path class="cls-27" d="m2219.99,1799.12l.44-.05c5.23-.65,8.93-5.31,8.27-10.42l-90.94-615.56-33.29.95,107,618.89c.69,3.96,4.45,6.7,8.53,6.19Z"/>
    <path class="cls-27" d="m1140.35,1799.12l-.44-.05c-5.23-.65-8.93-5.31-8.27-10.42l90.94-615.56,33.29.95-107,618.89c-.68,3.96-4.45,6.7-8.53,6.19Z"/>
    <path class="cls-27" d="m1350.87,1799.12l-.44-.05c-5.23-.65-8.93-5.31-8.27-10.42l90.94-615.56,33.29.95-107,618.89c-.69,3.96-4.45,6.7-8.53,6.19Z"/>
  </g>
  <rect class="cls-1" x="200.52" y="1793.3" width="2834" height="10.89" rx="3.86" ry="3.86"/>
  <path class="cls-21" d="m1887.37,1798.62h180.45c8.68-10.59,5.48-49.67,4.17-62.44-.27-2.57-.46-4.07-.46-4.07,0,0-61.62-49.29-70.09-11.55-.26,1.18-.57,2.34-.91,3.48-10.66,35.3-58.5,51.34-86.12,55.81-17.96,2.91-24.59,12.25-27.05,18.76Z"/>
  <path class="cls-7" d="m2379.77,1212.26c-6.51,0-309.11,56.81-359.16,118.77-25,30.95-28.72,388.41-28.72,388.41,0,0,30.93,38.35,97.74,16.08,0,0,48.98-244.57,45.37-318.74-1-20.51,206.75-2.97,244.77-12.81,38.02-9.84,130.93-92.56,110.46-132.85-20.47-40.3-110.46-58.86-110.46-58.86Z"/>
  <path class="cls-23" d="m2021.9,1124.73s-61.04.82-75.47,7.01c-14.43,6.19-43.72,20.39-35.88,22.57,7.84,2.18,45.23-.9,53.31.34,8.08,1.24,18.04-.34,22.99-.34,4.95,0,28.03,0,28.03,0l7.02-29.58Z"/>
  <path class="cls-23" d="m1950.54,978.25s-20.81-14.87-41.02-17.76c-11.53-1.65-22.73-3.7-29.5-6.09-18.65-6.57-55.96-40.12-53.13-44.05,9.05-12.61,52.61,14.08,60.21,11.21,7.6-2.87-14.61-18.66-6.89-24.22,4.04-2.9,13.48,11.64,21.19,13.1,10.44,1.98,18.6,16.72,21.75,17.49,6.12,1.5,32.92,21.43,32.92,21.43l-5.52,28.88Z"/>
  <path class="cls-3" d="m2349.63,804.59s-46.46,14.4-92.24,140.46c-45.78,126.06-63.16,132.87-79.8,137.81-16.64,4.95-162.7,34.03-162.7,34.03v37.41h225.05s84.39-80.28,109.69-134.32c25.3-54.04,0-215.4,0-215.4Z"/>
  <path class="cls-15" d="m1807.62,1798.62h180.45c8.68-10.59,5.48-49.67,4.17-62.44-.27-2.57-.46-4.07-.46-4.07,0,0-61.62-49.29-70.09-11.55-.26,1.18-.57,2.34-.91,3.48-10.66,35.3-58.5,51.34-86.12,55.81-17.96,2.91-24.59,12.25-27.05,18.76Z"/>
  <path class="cls-11" d="m2290.6,1212.26c-6.52,0-309.11,56.81-359.16,118.77-25,30.95-28.72,388.41-28.72,388.41,0,0,30.94,38.35,97.74,16.08,0,0,48.98-244.57,45.37-318.74-1-20.51,206.75-2.97,244.77-12.81,38.02-9.84,130.93-92.56,110.46-132.85-20.47-40.3-110.46-58.86-110.46-58.86Z"/>
  <path class="cls-23" d="m2309.54,844.54c21.77-1.8,44.59-7.6,64.32-14,24.66-8,44.53-19.7,31.73-42.23-11.8-20.77-30.91-67.17-29.62-105.61l-45.88,36.98-31.17,25.11s.13,14.81,3.54,40.76c.62,4.73,1.35,9.84,2.21,15.29.69,4.41-1.33,8.81-5.12,11.16-.24.15-.47.29-.7.44-15.49,9.73-7.52,33.61,10.71,32.1Z"/>
  <path class="cls-26" d="m2298.91,738.67s-1.59,5.38,1.15,25.23c27.79-4.53,53.76-26.7,53.76-26.7-14.15-3.88-19.29-19.17-29.83-17.74l-25.08,19.21Z"/>
  <path class="cls-23" d="m2273.21,743.2s106.88,17.76,116.92-48.98c10.03-66.73,30.59-109.38-37.23-123.54-67.82-14.16-84.94,9.31-93.7,30.77-8.77,21.46-13.53,135.41,14.02,141.75Z"/>
  <path class="cls-24" d="m2243.47,571.92c-4.59,16.07,7.69,35.64,28.31,42.09,30.61,9.56,23.84,47.11,37.62,46.6,13.77-.51,19.33-21.58,31.63-4.75,10.49,14.36-8.73,31.38-7.41,39.26,2.27,13.52,23.45,41.18,42.53,39.79,19.08-1.39,54.79-92.08,47.65-120.14-7.14-28.06-35.71-57.65-62.75-61.73-27.04-4.08-64.59,7.59-73.26,7.59s-41.85,2.6-44.33,11.28Z"/>
  <path class="cls-5" d="m2491.65,897.21c-15.45-62.18-58.15-127.42-87.02-127.37-49.2.09-119.92,13.08-148.47,83.52-21.03,51.88-49.08,350.31-17.38,371.53,72.47,48.52,240.46,147.56,270.3,46.56,27.34-92.55,9.38-266.32-17.44-374.24Z"/>
  <path class="cls-5" d="m2372.16,835.33c-14.03-36.51-59.3-49.13-90.17-25.11-16.7,12.99-37.14,31.49-61.84,57.79-91.81,97.77-110.47,97.16-127.71,95.14-17.24-2.02-162.92-32.94-162.92-32.94,0,0-7.46,5.5-11.85,14.4-5.86,11.88-2.91,19.98-2.91,19.98-5.71-3.69,51.64,35.84,80.18,51.6,37.7,20.81,94.5,40.33,117.12,47.74,6.41,2.1,13.33,2,19.68-.29,33.58-12.1,146.34-56.21,238.14-132.73,24.19-20.16,15.3-61.72,2.29-95.57Z"/>
  <path class="cls-13" d="m2409.58,770.44l-11.14-25.09s-99.7,8.13-116.46,64.87c0,0,77.28-38.57,127.59-39.78Z"/>
  <g>
    <path class="cls-6" d="m2651.64,1796.37h.69c5.63-.12,9.98-4.72,9.45-10.01l-37.56-375.07-32.77,2.92,53.93,377.09c.42,2.95,3.12,5.13,6.26,5.07Z"/>
    <path class="cls-6" d="m2458.33,1796.37h.69c5.63-.12,9.98-4.72,9.45-10.01l-37.55-375.07-32.77,2.92,53.93,377.09c.42,2.95,3.12,5.13,6.26,5.07Z"/>
    <path class="cls-25" d="m2095.43,1796.37h-.69c-5.63-.12-9.98-4.72-9.45-10.01l37.56-375.07,32.77,2.92-53.93,377.09c-.42,2.95-3.12,5.13-6.26,5.07Z"/>
    <path class="cls-6" d="m2641.03,1358.16l35.64-313.26c4.67-45.14-10.43-89.35-75.58-92.77l-114.61-6.98c-67.93-2.8-98.59,53.73-107.19,97.25l-68.04,344.35,329.77-28.6Z"/>
    <path class="cls-25" d="m2113.22,1356.74h527.24v41.46c0,10.26-8.33,18.58-18.58,18.58h-508.66c-10.26,0-18.58-8.33-18.58-18.58v-22.88c0-10.26,8.33-18.58,18.58-18.58Z"/>
    <path class="cls-6" d="m2325.68,1356.74h314.77v45.61c0,7.96-6.47,14.43-14.43,14.43h-300.34c-7.96,0-14.43-6.47-14.43-14.43v-31.18c0-7.96,6.47-14.43,14.43-14.43Z"/>
  </g>
</svg>