<?xml version="1.0" encoding="UTF-8"?>
<svg id="_Layer_" data-name="&amp;lt;Layer&amp;gt;" xmlns="http://www.w3.org/2000/svg" viewBox="0 0 3600 2000">
  <defs>
    <style>
      .cls-1 {
        fill: #005100;
      }

      .cls-1, .cls-2, .cls-3, .cls-4, .cls-5, .cls-6, .cls-7, .cls-8, .cls-9, .cls-10, .cls-11, .cls-12, .cls-13, .cls-14, .cls-15, .cls-16, .cls-17, .cls-18, .cls-19 {
        stroke-width: 0px;
      }

      .cls-2 {
        fill: #eb3668;
      }

      .cls-3 {
        fill: #496249;
      }

      .cls-4 {
        fill: #2e3552;
      }

      .cls-5 {
        fill: #ecebfc;
      }

      .cls-6 {
        fill: #8c013c;
      }

      .cls-7 {
        fill: #ff9792;
      }

      .cls-8 {
        fill: #f9d525;
      }

      .cls-9 {
        fill: #ff7d78;
      }

      .cls-10 {
        fill: #f9c439;
      }

      .cls-11 {
        fill: #a8d29f;
      }

      .cls-12 {
        fill: #ebf3fa;
      }

      .cls-13 {
        fill: #fff7d4;
      }

      .cls-14 {
        fill: #efecea;
      }

      .cls-15 {
        fill: #9bc293;
      }

      .cls-16 {
        fill: #d1d3d4;
      }

      .cls-17 {
        fill: #dfdcf7;
      }

      .cls-18 {
        fill: #003d00;
      }

      .cls-19 {
        fill: #3c523d;
      }

      .cls-20 {
        fill: #fff;
        stroke: #8c013c;
        stroke-miterlimit: 10;
      }
    </style>
  </defs>
  <path class="cls-12" d="m916.69,1819.49s-336.33-405.14-171.96-822.22c107.14-271.87,509.04-420.84,735.85-271.87,96.6,63.45,406.53,2.14,572.01-260.54,321.57-510.45,1443.86-200.45,1239.54,583.27-98.88,379.26,300.92,393.05,97.21,772.16l-2472.65-.8Z"/>
  <path class="cls-13" d="m2016.49,663.24s-106.69-5.22-50.09,319.94c0,0,38.07,110.37-9.99,181.51h707.54v-501.45h-647.46Z"/>
  <g>
    <path class="cls-15" d="m1870.12,1511.43s-49.43-57.67-3.05-94.3c0,0,33.88-20.51,61.5-18.85,0,0-39.14,65.64-26.48,72.17,12.66,6.53,38.34-76.29,38.34-76.29,0,0,77.1-7.48,101.9,4.45,0,0-65.91,53.93-52.03,57.15,13.88,3.21,85.07-49.73,85.07-49.73,0,0,71.76,12.21,67.93,55.99-3.83,43.77-28.55,57.29-39.42,56.13-10.87-1.16-74.44-25.43-75.82-16.52-1.38,8.9,36.88,38,63.68,39.36,0,0-50.59,55.79-84.21,39.69-33.62-16.1-36.49-41.63-57.45-51.2-20.96-9.57-38.85-9.55-30.2.21,8.65,9.76,46.58,19.25,58.57,40.45,11.99,21.2,22.74,35.5-12.04,30.26-34.79-5.23-91.33-30.69-93.81-59.83l-2.48-29.15Z"/>
    <g>
      <path class="cls-15" d="m2108.06,1463.2s-194.9-7.51-237.94,48.23c0,0-9.52,28.51-38.81,54.47l-4.57,12.44s33.77-35.61,45.86-37.76c0,0-18.9-69.05,235.45-77.37Z"/>
      <path class="cls-15" d="m1831.31,1565.89s-41.83,30.94-44.74,86.22l7.59.68s13.36-57.16,37.51-79.51c24.15-22.35-.36-7.39-.36-7.39Z"/>
    </g>
  </g>
  <g>
    <path class="cls-11" d="m1697.3,1438.9s78.63-44.03,41.94-103.79c0,0-29.36-36.69-60.81-46.13,0,0,16.77,89.12,0,91.21-16.77,2.1-11.53-100.65-11.53-100.65,0,0-82.82-39.84-115.32-36.69,0,0,51.37,87.02,34.6,84.92-16.77-2.1-74.44-90.16-74.44-90.16,0,0-84.92-15.73-98.55,34.6-13.63,50.32,8.39,75.48,20.97,78.63,12.58,3.14,93.31,2.1,91.21,12.58-2.1,10.48-56.61,27.26-87.02,17.82,0,0,33.55,82.82,77.58,78.63,44.03-4.19,57.66-31.45,84.92-33.55,27.26-2.1,47.18,5.24,33.55,12.58-13.63,7.34-59.76,2.41-81.78,21.12-22.02,18.72-39.84,30.25,1.05,38.64,40.89,8.39,114.28,3.15,128.95-28.31l14.68-31.45Z"/>
    <g>
      <path class="cls-11" d="m1451.97,1287.93s220.17,71.29,245.33,150.97c0,0-1.05,35.65,20.97,76.53v15.73s-23.06-53.47-35.65-60.81c0,0,49.28-69.2-230.65-182.42Z"/>
      <path class="cls-11" d="m1718.27,1515.44s33.95,51.56,14.6,114.32l-8.74-2.35s8.48-69.13-9.29-103.9c-17.76-34.77,3.42-8.08,3.42-8.08Z"/>
    </g>
  </g>
  <g>
    <path class="cls-11" d="m1822.39,1378.18s-103.65-58.04-55.28-136.82c0,0,38.7-48.37,80.15-60.81,0,0-22.11,117.47,0,120.23,22.11,2.76,15.2-132.67,15.2-132.67,0,0,109.18-52.52,152.02-48.37,0,0-67.72,114.7-45.61,111.94,22.11-2.76,98.12-118.85,98.12-118.85,0,0,111.94-20.73,129.91,45.61,17.97,66.34-11.06,99.5-27.64,103.65-16.58,4.15-123,2.76-120.23,16.58,2.76,13.82,74.63,35.93,114.71,23.49,0,0-44.22,109.18-102.27,103.65-58.04-5.53-76.01-41.46-111.94-44.22-35.93-2.76-62.19,6.91-44.22,16.58,17.97,9.67,78.77,3.17,107.8,27.84,29.02,24.67,52.52,39.87-1.38,50.93-53.9,11.06-150.64,4.15-169.99-37.31l-19.35-41.46Z"/>
    <g>
      <path class="cls-11" d="m2145.78,1179.17s-290.22,93.97-323.39,199.01c0,0,1.38,46.99-27.64,100.89v20.73s30.4-70.48,46.99-80.16c0,0-64.95-91.21,304.04-240.47Z"/>
      <path class="cls-11" d="m1794.75,1479.06s-44.76,67.96-19.24,150.7l11.51-3.09s-11.18-91.12,12.24-136.95c23.42-45.83-4.51-10.65-4.51-10.65Z"/>
    </g>
  </g>
  <path class="cls-19" d="m1818.9,1809.17c112.13,0,203.03-90.9,203.03-203.03h-406.07c0,112.13,90.9,203.03,203.03,203.03Z"/>
  <path class="cls-3" d="m1868.86,1807.61c-8.26,1.03-16.68,1.55-25.22,1.55-112.13,0-203.02-90.9-203.02-203.03h50.44c0,103.59,77.58,189.06,177.81,201.48Z"/>
  <path class="cls-19" d="m2024.74,1819.5h-411.67c0-13.83,11.21-25.05,25.05-25.05h361.58c13.83,0,25.05,11.22,25.05,25.05h0Z"/>
  <rect class="cls-11" x="1609.19" y="1606.13" width="417.36" height="6.23"/>
  <g>
    <path class="cls-16" d="m2772.62,831.34s-35.57-67.11,17.72-92.67c0,0,37.55-12.57,64.14-4.89,0,0-52.6,55.45-41.67,64.6,10.92,9.15,54.15-66.01,54.15-66.01,0,0,76.86,9.63,98.44,26.7,0,0-76.14,38.15-63.3,44.33,12.84,6.18,93.91-29.84,93.91-29.84,0,0,67.33,27.66,53.99,69.53-13.34,41.87-40.43,49.63-50.78,46.11-10.35-3.52-67.04-41.15-70.34-32.76-3.31,8.38,27.64,45.17,53.48,52.38,0,0-61.6,43.33-90.87,20.24-29.27-23.09-26.47-48.62-44.81-62.56-18.35-13.94-35.81-17.84-29.51-6.42,6.3,11.43,41.22,29.01,48.26,52.32,7.04,23.31,14.39,39.63-18.4,26.88-32.79-12.74-82.37-49.99-78.39-78.97l3.98-28.98Z"/>
    <g>
      <path class="cls-16" d="m3015.34,836.51s-188.49-50.11-242.72-5.17c0,0-15.54,25.72-49.82,44.62l-7.19,11.14s40.77-27.33,53.03-26.78c0,0-3.28-71.52,246.69-23.81Z"/>
      <path class="cls-16" d="m2722.8,875.96s-47.6,21-62.57,74.29l7.26,2.33s25.58-52.83,54.05-69.34c28.47-16.51,1.27-7.29,1.27-7.29Z"/>
    </g>
  </g>
  <g>
    <path class="cls-16" d="m2538.43,710.29s-105.33-54.93-59.33-135.11c0,0,37.24-49.5,78.31-63.17,0,0-18.61,118.08,3.58,120.18,22.18,2.1,11.25-133.07,11.25-133.07,0,0,107.57-55.74,150.51-52.87,0,0-64.27,116.67-42.25,113.25,22.02-3.42,94.54-121.72,94.54-121.72,0,0,111.27-24.05,131.21,41.72,19.93,65.77-8.09,99.79-24.54,104.43-16.45,4.64-122.86,6.42-119.69,20.16,3.17,13.73,75.66,33.69,115.35,20.07,0,0-40.95,110.45-99.14,106.65-58.18-3.8-77.21-39.18-113.21-40.87-36-1.69-61.96,8.76-43.71,17.89,18.25,9.13,78.83.82,108.58,24.62,29.74,23.8,53.68,38.29.14,50.95-53.54,12.66-150.45,8.63-171.02-32.24l-20.57-40.87Z"/>
    <g>
      <path class="cls-16" d="m2855.75,501.75s-287.29,102.57-317.32,208.55c0,0,2.78,46.93-24.62,101.66l.62,20.72s28.29-71.35,44.58-81.52c0,0-67.64-89.24,296.75-249.41Z"/>
      <path class="cls-16" d="m2513.81,811.96s-42.71,69.27-14.75,151.2l11.42-3.43s-13.89-90.75,8.16-137.26c22.04-46.51-4.83-10.51-4.83-10.51Z"/>
    </g>
  </g>
  <rect class="cls-17" x="2061.35" y="855.7" width="738.69" height="963.35"/>
  <rect class="cls-5" x="2085.5" y="855.7" width="726.27" height="963.35"/>
  <path class="cls-11" d="m3323.88,1820.45h-146.35c-7.84-6.65,5.43-21.76,19.29-22.78,6.02-.45,13.64.81,22.34,2.64,2.01-26.75,13.51-147,56.86-142.17,48.74,5.41,0,52.96-13.78,81.11-10.21,20.85-20.97,50.75-25.89,64.86,3.96.86,8.05,1.7,12.24,2.47,6.46-19.83,30.5-86.55,61.06-82.66,35.89,4.55,21.46,31.3-3.97,47.18-18.66,11.68-41.58,28.27-52.47,36.29,9.23,1.51,18.85,2.52,28.62,2.29,25.07-.59,37.31,6.79,42.05,10.77Z"/>
  <path class="cls-5" d="m2811.78,855.68h0s-726.27.01-726.27.01c4.02-54.92-2.03-94.8-11.73-123.48-18.63-55.15-50.73-68.98-50.73-68.98h684.95c58.46,0,103.79,35.22,116.13,81.97.46,1.76.89,3.51,1.26,5.26,11.71,53.48-13.11,104.25-13.59,105.23Z"/>
  <path class="cls-17" d="m2811.78,855.68h0s-726.27.01-726.27.01c4.02-54.92-2.03-94.8-11.73-123.48,74.22,13.59,258.05,42.55,454.81,37.67,127.29-3.16,227.89-11.67,296.8-19.43,11.71,53.48-13.11,104.25-13.59,105.23Z"/>
  <path class="cls-6" d="m2235.24,1059.77h384.22c4.23,0,7.66,3.43,7.66,7.66v2.75c0,4.23-3.43,7.66-7.66,7.66h-384.22c-4.23,0-7.66-3.43-7.66-7.66v-2.75c0-4.23,3.43-7.66,7.66-7.66Z"/>
  <path class="cls-20" d="m2235.24,1130.17h384.22c4.23,0,7.66,3.43,7.66,7.66v33.69c0,4.23-3.43,7.66-7.66,7.66h-384.22c-4.23,0-7.66-3.43-7.66-7.66v-33.68c0-4.23,3.43-7.66,7.66-7.66Z"/>
  <path class="cls-20" d="m2235.24,1193.41h384.22c4.23,0,7.66,3.43,7.66,7.66v33.69c0,4.23-3.43,7.66-7.66,7.66h-384.22c-4.23,0-7.66-3.43-7.66-7.66v-33.68c0-4.23,3.43-7.66,7.66-7.66Z"/>
  <path class="cls-20" d="m2235.24,1256.66h384.22c4.23,0,7.66,3.43,7.66,7.66v107.32c0,4.23-3.43,7.66-7.66,7.66h-384.22c-4.23,0-7.66-3.43-7.66-7.66v-107.32c0-4.23,3.43-7.66,7.66-7.66Z"/>
  <rect class="cls-6" x="2227.58" y="1090.16" width="248.95" height="18.07" rx="6.04" ry="6.04"/>
  <path class="cls-6" d="m2233.62,1439.14h236.86c3.34,0,6.04,2.71,6.04,6.04v5.98c0,3.34-2.71,6.04-6.04,6.04h-236.86c-3.34,0-6.04-2.71-6.04-6.04v-5.98c0-3.34,2.71-6.04,6.04-6.04Z"/>
  <path class="cls-6" d="m2240.74,1264.65h108.83c3.34,0,6.04,2.71,6.04,6.04v5.98c0,3.34-2.71,6.04-6.04,6.04h-108.83c-3.34,0-6.04-2.71-6.04-6.04v-5.98c0-3.34,2.71-6.04,6.04-6.04Z"/>
  <path class="cls-6" d="m2240.74,1208.88h49.81c3.34,0,6.04,2.71,6.04,6.04v5.98c0,3.34-2.71,6.04-6.04,6.04h-49.82c-3.34,0-6.04-2.71-6.04-6.04v-5.98c0-3.34,2.71-6.04,6.04-6.04Z"/>
  <path class="cls-6" d="m2240.74,1145.64h49.81c3.34,0,6.04,2.71,6.04,6.04v5.98c0,3.34-2.71,6.04-6.04,6.04h-49.82c-3.34,0-6.04-2.71-6.04-6.04v-5.98c0-3.34,2.71-6.04,6.04-6.04Z"/>
  <g>
    <path class="cls-6" d="m2335.61,898.69h238.96c4.39,0,7.95,3.56,7.95,7.95v5.08c0,4.39-3.56,7.95-7.95,7.95h-238.96c-4.39,0-7.95-3.56-7.95-7.95v-5.08c0-4.39,3.56-7.96,7.96-7.96Z"/>
    <path class="cls-6" d="m2273.16,931.05h363.87c5.38,0,9.75,4.37,9.75,9.75v1.48c0,5.38-4.37,9.76-9.76,9.76h-363.87c-5.38,0-9.76-4.37-9.76-9.76v-1.48c0-5.38,4.37-9.75,9.75-9.75Z"/>
  </g>
  <path class="cls-7" d="m2907.4,1364.48s-2.6,25.33-5.46,30.12c-2.86,4.79-15.03,20.1-20.21,23.1-5.18,3,3.17-20.17,2.11-24.68-1.06-4.51-4.27,8.23-6.55,8.53-2.28.3-1.7-11.17-1.78-15.34-.08-4.17,11.12-14.47,15.07-23.36,3.95-8.89,16.83,1.63,16.83,1.63Z"/>
  <path class="cls-7" d="m2596.22,1130.87l-5.82-10.98s2.89-19.57-21.63-31.95c0,0-8.96-3.65-14.02,3.66-4.66,6.73,8.88,5.52,8.15,17.04-.73,11.52,4.74,18.28,12.35,22.03l6.29,7.29,14.68-7.08Z"/>
  <path class="cls-18" d="m2827.98,1104.62s-21.06,103.36-136.95,137.14c-36.18,10.54-118.36-108.56-118.36-108.56,0,0,2.89-10.98,20.99-8.46,0,0,80.02,52.98,90.1,58.73,8.94,5.11,67.73-65.65,94.53-77.06,26.8-11.41,49.7-1.79,49.7-1.79Z"/>
  <g>
    <rect class="cls-14" x="2560.94" y="1048.81" width="21.65" height="108.88" transform="translate(1090.89 3477.73) rotate(-81.27)"/>
    <polygon class="cls-2" points="2492.93 1091.14 2516.31 1105.69 2519.59 1084.29 2492.93 1091.14"/>
    <path class="cls-2" d="m2638.64,1109.84l-1.04,6.76c-.64,4.16-4.53,7.01-8.69,6.38l-4.98-.76,3.29-21.4,5.41.83c3.92.6,6.61,4.27,6.01,8.19Z"/>
  </g>
  <path class="cls-6" d="m2966.34,1754.4s14.38,13.12,11.57,22.44c-2.81,9.32-15.78,15.54-17.53,26.93-1.75,11.39-8.77,17.61-15.08,17.61h-30.09s-4.65-8.02,6.58-10.43c11.22-2.42,15.45-15.81,14.75-28.24-.7-12.43,1.05-29,1.05-29l23.85-5.52,4.91,6.21Z"/>
  <path class="cls-6" d="m2789.96,1788.33s2.58,29.86-3.73,32.97l-80.78-.17s0-9.32,12.97-11.39c12.97-2.07,35.77-9.67,39.62-26.59,3.86-16.92,31.91,5.18,31.91,5.18Z"/>
  <path class="cls-8" d="m2721.76,1366.54s4.26,52.34,9.27,115.26c6.81,85.47,14.99,190.45,15.8,210.34,1.4,34.53,7.02,89.78,7.02,89.78,0,0,13.32,13.12,39.98,7.59,0,0,23.75-78.86,30.54-162.3.11-1.37.21-2.75.32-4.12,6.31-84.94,16.13-263.8,16.13-263.8l-119.04,7.25Z"/>
  <path class="cls-10" d="m2721.76,1366.54s4.26,52.34,9.27,115.26l93.33,145.41c.11-1.37.21-2.75.32-4.12,6.31-84.94,16.13-263.8,16.13-263.8l-119.04,7.25Z"/>
  <path class="cls-8" d="m2741.21,1372.75s76.8,189.56,127.29,278.64c50.5,89.08,66.28,113.94,66.28,113.94,0,0,28.93-11.39,31.56-19.16,0,0-19.31-171.98-53.13-213.9-19.11-23.69-41.55-94.78-42.61-119.64-1.05-24.86-6.84-74.06-6.84-74.06l-122.56,34.18Z"/>
  <path class="cls-7" d="m2842.25,1080.63s-51.96,25.07-81.92,15.77c0,0,7.37-9.3,20.28-16.22-1.04-6.01-1.84-11.23-2.31-15.65-1.27-10.21-1.27-16-1.27-16l20.05-15.77,19.01-15.09c-1.5,42.43,26.15,62.96,26.15,62.96Z"/>
  <path class="cls-1" d="m2869.64,1348.28c.11,3.18-6.68,6.81-9.68,8.17-22.24,9.76-42.97,16.56-66.48,18.83-27.77,2.84-60.6-3.4-71.89-3.18-1.15,0-2.19-.45-3.11-1.25-.81-.57-1.38-34.03-.81-76.12,0-1.7,0-3.4.11-5.11v-.57c.23-16.45.81-33.69,1.61-50.94,1.61-37.89,4.61-74.42,9.68-94.61,6.11-23.82,19.93-39.59,32.49-51.05l10.37-9.08c10.37,2.04,21.31,1.48,32.26-3.85,11.98-5.79,24.88-12.03,26.96-10.44,15.67,11.46,26.27,37.21,31.91,70.11,3.23,18.95,4.84,40.16,4.72,62.39,0,8.17-.23,16.56-.69,24.85-2.76,44.92,0,83.95,1.61,106.52.46,6.58.81,11.69.92,15.32Z"/>
  <path class="cls-18" d="m2868.71,1346.21c-181.95-.36-33.56-197.44-33.56-197.44l29.48-9.57c2.33,20.24,3.5,42.9,3.42,66.66,0,8.73-.17,17.7-.5,26.54-2,48,0,89.69,1.17,113.81Z"/>
  <path class="cls-9" d="m2816.45,1033.89s-13.13,23.94-38.14,30.63c-1.27-10.21-1.27-16-1.27-16l20.05-15.77,19.36,1.13Z"/>
  <path class="cls-7" d="m2767.9,1047.83s49.57,8.11,54.22-22.36c4.65-30.47,14.18-49.95-17.27-56.41-31.45-6.47-39.39,4.25-43.46,14.05-4.07,9.8-6.27,61.84,6.5,64.73Z"/>
  <path class="cls-6" d="m2840.14,965.41c.45-.52,1.49-.93,3.8-1.06,0,0-1.85-1.15-4.31-1.22-.48-3.21-2.19-8.9-7.72-10.28,0,0,2.97,1.58,3.36,5-6.4-6.58-20.12-11.36-58.11-8.36-50.06,3.95-33.56,36.01-27.08,39.83,6.48,3.82,22.8-6.65,34.87-5.7,12.08.96,14.37,18.41,18.47,20.8,4.1,2.39,2.49-1.84,8.03-4.34,5.54-2.51,6.07,6.68,4.47,12.65-1.6,5.97,6.01,13.85,6.01,13.85l7.7-8.29c7.7-8.29,14.95-43.4,11.45-50.88-.31-.66-.61-1.33-.93-2Z"/>
  <path class="cls-1" d="m2831.13,1068.84s31.36,14.85,46.4,37.68c23.33,35.41,50.36,164.48,50.86,176.44.5,11.95-19.73,96.33-19.73,96.33,0,0-20.52-1.35-25.81-11.71,0,0,4.1-86.7,1.5-92.27-2.6-5.57-85.55-116.3-76.22-139.93,9.33-23.63,23.01-66.55,23.01-66.55Z"/>
  <path class="cls-7" d="m2590.29,1119.37s1.71-6.74-2.97-9.76c-4.67-3.03-8.97-11.26-10.94-10.15-4.08,2.31,2.23,9.5,1.08,18.46-.4,3.14,6.9,11.36,12.83,1.45Z"/>
  <path class="cls-6" d="m2647.1,1609.55h-446.6c-2.99,0-5.43-2.45-5.43-5.44h0c0-2.99,2.45-5.43,5.43-5.43h446.6c2.99,0,5.43,2.45,5.43,5.43h0c0,2.99-2.45,5.44-5.43,5.44Z"/>
  <path class="cls-6" d="m2647.1,1631.3h-446.6c-2.99,0-5.43-2.45-5.43-5.44h0c0-2.99,2.45-5.44,5.43-5.44h446.6c2.99,0,5.43,2.45,5.43,5.44h0c0,2.99-2.45,5.44-5.43,5.44Z"/>
  <path class="cls-6" d="m2647.1,1655.41h-446.6c-2.99,0-5.43-2.45-5.43-5.43h0c0-2.99,2.45-5.44,5.43-5.44h446.6c2.99,0,5.43,2.45,5.43,5.44h0c0,2.99-2.45,5.43-5.43,5.43Z"/>
  <path class="cls-6" d="m2588.11,1679.52h-387.61c-2.99,0-5.43-2.45-5.43-5.43h0c0-2.99,2.45-5.44,5.43-5.44h387.61c2.99,0,5.44,2.45,5.44,5.44h0c0,2.99-2.45,5.44-5.44,5.44Z"/>
  <path class="cls-4" d="m790.84,1817.71h2697.48c1.69,0,3.06,1.37,3.06,3.06v1.04c0,1.69-1.37,3.06-3.06,3.06H790.84c-1.69,0-3.06-1.37-3.06-3.06v-1.04c0-1.69,1.37-3.06,3.06-3.06Z"/>
</svg>